<svg width="100" height="100" viewBox="0 0 100 100" fill="none" xmlns="http://www.w3.org/2000/svg">
<path d="M16.6668 68.7496C16.6668 75.6529 22.2633 81.2496 29.1668 81.2496C29.1668 87.0025 33.8305 91.6662 39.5835 91.6662C45.3364 91.6662 50.0002 87.0025 50.0002 81.2496C50.0002 87.0025 54.6639 91.6658 60.4168 91.6658C66.1698 91.6658 70.8335 87.0021 70.8335 81.2491C77.7373 81.2491 83.3335 75.6525 83.3335 68.7491C83.3335 66.3796 82.6743 64.1641 81.5293 62.2762C87.3031 61.1716 91.6668 56.095 91.6668 49.9991C91.6668 43.9029 87.3031 38.8263 81.5293 37.7219C82.6743 35.8338 83.3335 33.6184 83.3335 31.249C83.3335 24.3454 77.7373 18.749 70.8335 18.749C70.8335 12.996 66.1698 8.33231 60.4168 8.33231C54.6639 8.33231 50.0002 12.9964 50.0002 18.7493C50.0002 12.9964 45.3364 8.33268 39.5835 8.33268C33.8305 8.33268 29.1668 12.9964 29.1668 18.7493C22.2633 18.7493 16.6668 24.3458 16.6668 31.2493C16.6668 33.6188 17.3261 35.8342 18.4712 37.7223C12.6971 38.8266 8.3335 43.9033 8.3335 49.9996C8.3335 56.0954 12.6971 61.1721 18.4712 62.2766C17.3261 64.1646 16.6668 66.38 16.6668 68.7496Z" stroke="#A1A1A1" stroke-width="8.25" stroke-linecap="round" stroke-linejoin="round"/>
<path d="M31.25 60.4163L38.9245 37.3926C39.318 36.2123 40.4225 35.4162 41.6667 35.4162C42.9108 35.4162 44.0154 36.2123 44.4088 37.3926L52.0833 60.4163M64.5833 35.4162V60.4163M35.4167 52.0829H47.9167" stroke="#A1A1A1" stroke-width="8.25" stroke-linecap="round" stroke-linejoin="round"/>
</svg>
