<svg width="327" height="120" viewBox="0 0 327 120" fill="none" xmlns="http://www.w3.org/2000/svg">
<path d="M157.824 84.48C155.136 84.48 152.704 84.048 150.528 83.184C148.352 82.32 146.48 81.104 144.912 79.536C143.344 77.968 142.144 76.128 141.312 74.016C140.48 71.872 140.064 69.552 140.064 67.056C140.064 64.56 140.496 62.272 141.36 60.192C142.256 58.08 143.52 56.24 145.152 54.672C146.784 53.104 148.704 51.888 150.912 51.024C153.152 50.16 155.584 49.728 158.208 49.728C160.064 49.728 161.808 49.968 163.44 50.448C165.104 50.928 166.608 51.584 167.952 52.416C169.296 53.248 170.432 54.208 171.36 55.296L166.416 60.528C165.616 59.76 164.784 59.12 163.92 58.608C163.088 58.096 162.192 57.696 161.232 57.408C160.272 57.088 159.248 56.928 158.16 56.928C156.752 56.928 155.456 57.184 154.272 57.696C153.12 58.208 152.096 58.928 151.2 59.856C150.336 60.752 149.664 61.824 149.184 63.072C148.704 64.288 148.464 65.616 148.464 67.056C148.464 68.496 148.72 69.84 149.232 71.088C149.744 72.336 150.448 73.424 151.344 74.352C152.24 75.248 153.296 75.968 154.512 76.512C155.76 77.024 157.088 77.28 158.496 77.28C159.488 77.28 160.416 77.12 161.28 76.8C162.176 76.48 162.944 76.048 163.584 75.504C164.224 74.96 164.736 74.32 165.12 73.584C165.504 72.816 165.696 72 165.696 71.136V69.888L166.752 71.52H157.488V65.136H173.28C173.344 65.488 173.392 65.968 173.424 66.576C173.456 67.184 173.472 67.776 173.472 68.352C173.504 68.928 173.52 69.36 173.52 69.648C173.52 71.824 173.12 73.824 172.32 75.648C171.552 77.44 170.464 78.992 169.056 80.304C167.648 81.616 165.984 82.64 164.064 83.376C162.144 84.112 160.064 84.48 157.824 84.48ZM179.771 84V50.4H203.195V57.36H187.691V77.04H203.675V84H179.771ZM183.611 70.224V63.6H201.035V70.224H183.611ZM210.708 84V50.4H218.004L235.62 74.4L234.036 74.16C233.876 73.104 233.748 72.096 233.652 71.136C233.556 70.176 233.46 69.232 233.364 68.304C233.3 67.376 233.236 66.432 233.172 65.472C233.14 64.512 233.108 63.472 233.076 62.352C233.076 61.232 233.076 60.016 233.076 58.704V50.4H240.996V84H233.604L215.22 59.232L217.668 59.568C217.828 61.104 217.956 62.416 218.052 63.504C218.18 64.56 218.276 65.504 218.34 66.336C218.436 67.168 218.5 67.92 218.532 68.592C218.564 69.264 218.58 69.936 218.58 70.608C218.612 71.248 218.628 71.968 218.628 72.768V84H210.708ZM248.659 84V48.48H256.339V84H248.659ZM278.165 84.288C275.381 84.288 272.901 83.728 270.725 82.608C268.549 81.456 266.837 79.888 265.589 77.904C264.373 75.92 263.765 73.648 263.765 71.088V50.4H272.021V70.656C272.021 71.872 272.293 72.976 272.837 73.968C273.381 74.928 274.117 75.696 275.045 76.272C275.973 76.816 277.013 77.088 278.165 77.088C279.381 77.088 280.453 76.816 281.381 76.272C282.341 75.696 283.109 74.928 283.685 73.968C284.261 72.976 284.549 71.872 284.549 70.656V50.4H292.517V71.088C292.517 73.648 291.893 75.92 290.645 77.904C289.429 79.888 287.733 81.456 285.557 82.608C283.381 83.728 280.917 84.288 278.165 84.288ZM311.376 84.48C309.168 84.48 307.168 84.224 305.376 83.712C303.616 83.168 302.048 82.4 300.672 81.408C299.296 80.384 298.064 79.184 296.976 77.808L301.92 72.192C303.52 74.336 305.12 75.776 306.72 76.512C308.352 77.248 310.032 77.616 311.76 77.616C312.624 77.616 313.408 77.504 314.112 77.28C314.816 77.056 315.36 76.736 315.744 76.32C316.128 75.872 316.32 75.328 316.32 74.688C316.32 74.208 316.192 73.776 315.936 73.392C315.712 73.008 315.392 72.672 314.976 72.384C314.56 72.096 314.064 71.84 313.488 71.616C312.912 71.36 312.304 71.152 311.664 70.992C311.024 70.8 310.368 70.64 309.696 70.512C307.84 70.096 306.224 69.584 304.848 68.976C303.472 68.368 302.32 67.632 301.392 66.768C300.496 65.872 299.824 64.864 299.376 63.744C298.928 62.592 298.704 61.312 298.704 59.904C298.704 58.4 299.04 57.024 299.712 55.776C300.416 54.496 301.344 53.408 302.496 52.512C303.68 51.584 305.04 50.88 306.576 50.4C308.112 49.888 309.712 49.632 311.376 49.632C313.584 49.632 315.472 49.872 317.04 50.352C318.64 50.8 320 51.456 321.12 52.32C322.272 53.184 323.248 54.224 324.048 55.44L319.008 60.288C318.336 59.456 317.6 58.768 316.8 58.224C316.032 57.68 315.2 57.264 314.304 56.976C313.44 56.688 312.544 56.544 311.616 56.544C310.656 56.544 309.824 56.672 309.12 56.928C308.448 57.152 307.92 57.488 307.536 57.936C307.152 58.352 306.96 58.864 306.96 59.472C306.96 60.016 307.12 60.48 307.44 60.864C307.76 61.248 308.192 61.6 308.736 61.92C309.28 62.208 309.904 62.464 310.608 62.688C311.312 62.88 312.048 63.04 312.816 63.168C314.576 63.52 316.16 63.984 317.568 64.56C319.008 65.136 320.24 65.84 321.264 66.672C322.32 67.504 323.12 68.496 323.664 69.648C324.24 70.768 324.528 72.08 324.528 73.584C324.528 75.92 323.952 77.904 322.8 79.536C321.68 81.136 320.128 82.368 318.144 83.232C316.192 84.064 313.936 84.48 311.376 84.48Z" fill="#1A6013"/>
<g clip-path="url(#clip0_16_25)">
<path fill-rule="evenodd" clip-rule="evenodd" d="M97.989 -0.0343886C97.8406 -0.0351886 97.7592 0.0660114 97.7364 0.184411L95.5528 7.55281C93.0888 8.28201 90.6226 9.00801 88.1628 9.74341C88.0348 9.78181 87.9652 9.85821 87.9656 9.99381C87.966 10.1292 88.085 10.2102 88.1954 10.2442L95.5454 12.4218C96.2774 14.8944 97.0054 17.369 97.7434 19.8372C97.7818 19.9652 97.8582 20.0348 97.9938 20.0344C98.1292 20.034 98.2102 19.915 98.2442 19.8046L100.429 12.4296L107.812 10.2422C107.959 10.1944 108.034 10.1374 108.034 9.98901C108.035 9.84061 107.934 9.75921 107.816 9.73641L100.422 7.54541L98.2422 0.187811C98.1944 0.0410114 98.1374 -0.0335886 97.989 -0.0341886V-0.0343886ZM98 8.50001C98.3978 8.50001 98.7793 8.65805 99.0606 8.93935C99.3419 9.22065 99.5 9.60219 99.5 10C99.5 10.3978 99.3419 10.7794 99.0606 11.0607C98.7793 11.342 98.3978 11.5 98 11.5C97.6022 11.5 97.2206 11.342 96.9393 11.0607C96.658 10.7794 96.5 10.3978 96.5 10C96.5 9.60219 96.658 9.22065 96.9393 8.93935C97.2206 8.65805 97.6022 8.50001 98 8.50001Z" fill="#1A6013"/>
<path fill-rule="evenodd" clip-rule="evenodd" d="M104.919 2.82001C104.86 2.82024 104.802 2.83875 104.754 2.87301L100.532 5.16501C100.696 5.75061 100.867 6.33201 101.062 6.90041L102.834 7.42541L105.109 3.23321C105.179 3.09541 105.192 3.00241 105.087 2.89681C105.035 2.84421 104.977 2.82121 104.919 2.82001ZM91.059 2.82141C91.0066 2.82681 90.9568 2.85241 90.909 2.90041C90.8134 2.99641 90.8406 3.13781 90.8946 3.23981L93.1754 7.44141C93.758 7.27801 94.3378 7.10781 94.9074 6.91401L95.4316 5.14541C94.0298 4.38341 92.628 3.61941 91.2254 2.86241C91.1664 2.83081 91.1114 2.81621 91.059 2.82141ZM102.834 12.5304C102.238 12.6968 101.648 12.8704 101.074 13.0692C100.904 13.6542 100.728 14.2382 100.554 14.8222L104.767 17.1094C104.905 17.1794 104.998 17.1918 105.103 17.0874C105.209 16.9832 105.194 16.8542 105.127 16.7542L102.834 12.5304ZM93.1564 12.5476C92.3904 13.9564 91.6232 15.3646 90.8624 16.7742C90.799 16.8922 90.8044 16.9954 90.9004 17.091C90.9964 17.1866 91.1378 17.1594 91.2398 17.1054L95.4414 14.8246C95.2758 14.2334 95.1032 13.6452 94.9066 13.0672C94.3226 12.8972 93.7396 12.7218 93.1564 12.5476Z" fill="#1A6013"/>
</g>
<g clip-path="url(#clip1_16_25)">
<path fill-rule="evenodd" clip-rule="evenodd" d="M251.989 19.9656C251.841 19.9648 251.759 20.066 251.736 20.1844L249.553 27.5528C247.089 28.282 244.623 29.008 242.163 29.7434C242.035 29.7818 241.965 29.8582 241.966 29.9938C241.966 30.1292 242.085 30.2102 242.195 30.2442L249.545 32.4218C250.277 34.8944 251.005 37.369 251.743 39.8372C251.782 39.9652 251.858 40.0348 251.994 40.0344C252.129 40.034 252.21 39.915 252.244 39.8046L254.429 32.4296L261.812 30.2422C261.959 30.1944 262.034 30.1374 262.034 29.989C262.035 29.8406 261.934 29.7592 261.816 29.7364L254.422 27.5454L252.242 20.1878C252.194 20.041 252.137 19.9664 251.989 19.9658V19.9656ZM252 28.5C252.398 28.5 252.779 28.658 253.061 28.9393C253.342 29.2207 253.5 29.6022 253.5 30C253.5 30.3978 253.342 30.7794 253.061 31.0607C252.779 31.342 252.398 31.5 252 31.5C251.602 31.5 251.221 31.342 250.939 31.0607C250.658 30.7794 250.5 30.3978 250.5 30C250.5 29.6022 250.658 29.2207 250.939 28.9393C251.221 28.658 251.602 28.5 252 28.5Z" fill="white"/>
<path fill-rule="evenodd" clip-rule="evenodd" d="M258.919 22.82C258.86 22.8202 258.802 22.8387 258.754 22.873L254.532 25.165C254.696 25.7506 254.867 26.332 255.062 26.9004L256.834 27.4254L259.109 23.2332C259.179 23.0954 259.192 23.0024 259.087 22.8968C259.035 22.8442 258.977 22.8212 258.919 22.82ZM245.059 22.8214C245.007 22.8268 244.957 22.8524 244.909 22.9004C244.813 22.9964 244.841 23.1378 244.895 23.2398L247.175 27.4414C247.758 27.278 248.338 27.1078 248.907 26.914L249.432 25.1454C248.03 24.3834 246.628 23.6194 245.225 22.8624C245.166 22.8308 245.111 22.8162 245.059 22.8214ZM256.834 32.5304C256.238 32.6968 255.648 32.8704 255.074 33.0692C254.904 33.6542 254.728 34.2382 254.554 34.8222L258.767 37.1094C258.905 37.1794 258.998 37.1918 259.103 37.0874C259.209 36.9832 259.194 36.8542 259.127 36.7542L256.834 32.5304ZM247.156 32.5476C246.39 33.9564 245.623 35.3646 244.862 36.7742C244.799 36.8922 244.804 36.9954 244.9 37.091C244.996 37.1866 245.138 37.1594 245.24 37.1054L249.441 34.8246C249.276 34.2334 249.103 33.6452 248.907 33.0672C248.323 32.8972 247.74 32.7218 247.156 32.5476Z" fill="white"/>
</g>
<path d="M15.36 74V38.8H2.048V29.2H39.872V38.8H26.24V74H15.36ZM47.5695 74V29.2H67.7295C70.5882 29.2 73.1695 29.8187 75.4735 31.056C77.8202 32.2933 79.6548 34 80.9775 36.176C82.3002 38.3093 82.9615 40.7413 82.9615 43.472C82.9615 46.288 82.3002 48.8267 80.9775 51.088C79.6548 53.3067 77.8415 55.056 75.5375 56.336C73.2335 57.616 70.6308 58.256 67.7295 58.256H57.9375V74H47.5695ZM72.4015 74L61.0095 53.776L72.1455 52.176L84.8175 74H72.4015ZM57.9375 49.936H66.7695C67.8788 49.936 68.8388 49.7013 69.6495 49.232C70.5028 48.72 71.1428 48.016 71.5695 47.12C72.0388 46.224 72.2735 45.2 72.2735 44.048C72.2735 42.896 72.0175 41.8933 71.5055 41.04C70.9935 40.144 70.2468 39.4613 69.2655 38.992C68.3268 38.5227 67.1748 38.288 65.8095 38.288H57.9375V49.936ZM91.483 74V26.64H101.723V74H91.483ZM111.945 74V29.2H131.273C134.089 29.2 136.585 29.84 138.761 31.12C140.979 32.4 142.729 34.1493 144.009 36.368C145.331 38.5867 145.993 41.0827 145.993 43.856C145.993 46.7573 145.331 49.36 144.009 51.664C142.729 53.9253 140.979 55.7173 138.761 57.04C136.585 58.3627 134.089 59.024 131.273 59.024H122.825V74H111.945ZM122.633 49.488H129.737C130.675 49.488 131.529 49.2533 132.297 48.784C133.065 48.3147 133.683 47.6747 134.153 46.864C134.622 46.0533 134.857 45.1147 134.857 44.048C134.857 42.9387 134.622 42 134.153 41.232C133.683 40.464 133.065 39.8667 132.297 39.44C131.529 39.0133 130.675 38.8 129.737 38.8H122.633V49.488Z" fill="white"/>
<path d="M62.616 114V100.08H57.816V97.2H70.68V100.08H65.736V114H62.616ZM71.7827 114V101.352H74.6867L74.7347 105.384L74.3267 104.472C74.5027 103.832 74.8067 103.256 75.2387 102.744C75.6707 102.232 76.1667 101.832 76.7267 101.544C77.3027 101.24 77.9027 101.088 78.5267 101.088C78.7987 101.088 79.0547 101.112 79.2947 101.16C79.5507 101.208 79.7587 101.264 79.9187 101.328L79.1267 104.568C78.9507 104.472 78.7347 104.392 78.4787 104.328C78.2227 104.264 77.9667 104.232 77.7107 104.232C77.3107 104.232 76.9267 104.312 76.5587 104.472C76.2067 104.616 75.8947 104.824 75.6227 105.096C75.3507 105.368 75.1347 105.688 74.9747 106.056C74.8307 106.408 74.7587 106.808 74.7587 107.256V114H71.7827ZM86.1212 114.24C85.0812 114.24 84.1372 113.952 83.2892 113.376C82.4412 112.8 81.7612 112.016 81.2492 111.024C80.7372 110.032 80.4812 108.904 80.4812 107.64C80.4812 106.376 80.7372 105.248 81.2492 104.256C81.7612 103.264 82.4572 102.488 83.3372 101.928C84.2172 101.368 85.2092 101.088 86.3132 101.088C86.9532 101.088 87.5372 101.184 88.0652 101.376C88.5932 101.552 89.0572 101.808 89.4572 102.144C89.8572 102.48 90.1852 102.864 90.4412 103.296C90.7132 103.728 90.8972 104.192 90.9932 104.688L90.3452 104.52V101.352H93.3212V114H90.3212V110.976L91.0172 110.856C90.9052 111.288 90.6972 111.712 90.3932 112.128C90.1052 112.528 89.7372 112.888 89.2892 113.208C88.8572 113.512 88.3692 113.76 87.8252 113.952C87.2972 114.144 86.7292 114.24 86.1212 114.24ZM86.9372 111.624C87.6252 111.624 88.2332 111.456 88.7612 111.12C89.2892 110.784 89.6972 110.32 89.9852 109.728C90.2892 109.12 90.4412 108.424 90.4412 107.64C90.4412 106.872 90.2892 106.192 89.9852 105.6C89.6972 105.008 89.2892 104.544 88.7612 104.208C88.2332 103.872 87.6252 103.704 86.9372 103.704C86.2492 103.704 85.6412 103.872 85.1132 104.208C84.6012 104.544 84.2012 105.008 83.9132 105.6C83.6252 106.192 83.4812 106.872 83.4812 107.64C83.4812 108.424 83.6252 109.12 83.9132 109.728C84.2012 110.32 84.6012 110.784 85.1132 111.12C85.6412 111.456 86.2492 111.624 86.9372 111.624ZM100.518 114L95.1904 101.352H98.4064L102.006 110.808L101.382 110.976L105.174 101.352H108.318L102.726 114H100.518ZM116.054 114.24C114.726 114.24 113.55 113.96 112.526 113.4C111.518 112.84 110.726 112.08 110.15 111.12C109.59 110.144 109.31 109.032 109.31 107.784C109.31 106.792 109.47 105.888 109.79 105.072C110.11 104.256 110.55 103.552 111.11 102.96C111.686 102.352 112.366 101.888 113.15 101.568C113.95 101.232 114.822 101.064 115.766 101.064C116.598 101.064 117.374 101.224 118.094 101.544C118.814 101.864 119.438 102.304 119.966 102.864C120.494 103.408 120.894 104.064 121.166 104.832C121.454 105.584 121.59 106.408 121.574 107.304L121.55 108.336H111.302L110.75 106.32H119.078L118.694 106.728V106.2C118.646 105.704 118.486 105.272 118.214 104.904C117.942 104.52 117.59 104.224 117.158 104.016C116.742 103.792 116.278 103.68 115.766 103.68C114.982 103.68 114.318 103.832 113.774 104.136C113.246 104.44 112.846 104.88 112.574 105.456C112.302 106.016 112.166 106.72 112.166 107.568C112.166 108.384 112.334 109.096 112.67 109.704C113.022 110.312 113.51 110.784 114.134 111.12C114.774 111.44 115.518 111.6 116.366 111.6C116.958 111.6 117.502 111.504 117.998 111.312C118.494 111.12 119.03 110.776 119.606 110.28L121.07 112.32C120.638 112.72 120.142 113.064 119.582 113.352C119.038 113.624 118.462 113.84 117.854 114C117.246 114.16 116.646 114.24 116.054 114.24ZM124.213 114V96.24H127.189V114H124.213ZM141.936 114.24C140.816 114.24 139.808 114.056 138.912 113.688C138.032 113.304 137.312 112.76 136.752 112.056L138.672 110.4C139.152 110.944 139.688 111.336 140.28 111.576C140.872 111.816 141.496 111.936 142.152 111.936C142.424 111.936 142.664 111.904 142.872 111.84C143.096 111.776 143.288 111.68 143.448 111.552C143.608 111.424 143.728 111.28 143.808 111.12C143.904 110.944 143.952 110.752 143.952 110.544C143.952 110.16 143.808 109.856 143.52 109.632C143.36 109.52 143.104 109.4 142.752 109.272C142.416 109.144 141.976 109.016 141.432 108.888C140.568 108.664 139.848 108.408 139.272 108.12C138.696 107.816 138.248 107.48 137.928 107.112C137.656 106.808 137.448 106.464 137.304 106.08C137.176 105.696 137.112 105.28 137.112 104.832C137.112 104.272 137.232 103.768 137.472 103.32C137.728 102.856 138.072 102.456 138.504 102.12C138.936 101.784 139.44 101.528 140.016 101.352C140.592 101.176 141.192 101.088 141.816 101.088C142.456 101.088 143.072 101.168 143.664 101.328C144.272 101.488 144.832 101.72 145.344 102.024C145.872 102.312 146.32 102.664 146.688 103.08L145.056 104.88C144.752 104.592 144.416 104.336 144.048 104.112C143.696 103.888 143.336 103.712 142.968 103.584C142.6 103.44 142.256 103.368 141.936 103.368C141.632 103.368 141.36 103.4 141.12 103.464C140.88 103.512 140.68 103.592 140.52 103.704C140.36 103.816 140.232 103.96 140.136 104.136C140.056 104.296 140.016 104.488 140.016 104.712C140.032 104.904 140.08 105.088 140.16 105.264C140.256 105.424 140.384 105.56 140.544 105.672C140.72 105.784 140.984 105.912 141.336 106.056C141.688 106.2 142.144 106.336 142.704 106.464C143.488 106.672 144.144 106.904 144.672 107.16C145.2 107.416 145.616 107.712 145.92 108.048C146.224 108.336 146.44 108.672 146.568 109.056C146.696 109.44 146.76 109.864 146.76 110.328C146.76 111.08 146.544 111.752 146.112 112.344C145.696 112.936 145.12 113.4 144.384 113.736C143.664 114.072 142.848 114.24 141.936 114.24ZM149.313 114V101.352H152.217L152.265 103.896L151.785 104.088C151.929 103.672 152.145 103.288 152.433 102.936C152.721 102.568 153.065 102.256 153.465 102C153.865 101.728 154.289 101.52 154.737 101.376C155.185 101.216 155.641 101.136 156.105 101.136C156.793 101.136 157.401 101.248 157.929 101.472C158.473 101.68 158.921 102.016 159.273 102.48C159.641 102.944 159.913 103.536 160.089 104.256L159.633 104.16L159.825 103.776C160.001 103.392 160.249 103.048 160.569 102.744C160.889 102.424 161.249 102.144 161.649 101.904C162.049 101.648 162.465 101.456 162.897 101.328C163.345 101.2 163.785 101.136 164.217 101.136C165.177 101.136 165.977 101.328 166.617 101.712C167.257 102.096 167.737 102.68 168.057 103.464C168.377 104.248 168.537 105.216 168.537 106.368V114H165.561V106.56C165.561 105.92 165.473 105.392 165.297 104.976C165.137 104.56 164.881 104.256 164.529 104.064C164.193 103.856 163.769 103.752 163.257 103.752C162.857 103.752 162.473 103.824 162.105 103.968C161.753 104.096 161.449 104.288 161.193 104.544C160.937 104.784 160.737 105.064 160.593 105.384C160.449 105.704 160.377 106.056 160.377 106.44V114H157.401V106.536C157.401 105.928 157.313 105.424 157.137 105.024C156.961 104.608 156.705 104.296 156.369 104.088C156.033 103.864 155.625 103.752 155.145 103.752C154.745 103.752 154.369 103.824 154.017 103.968C153.665 104.096 153.361 104.28 153.105 104.52C152.849 104.76 152.649 105.04 152.505 105.36C152.361 105.68 152.289 106.032 152.289 106.416V114H149.313ZM176.59 114.24C175.55 114.24 174.606 113.952 173.758 113.376C172.91 112.8 172.23 112.016 171.718 111.024C171.206 110.032 170.95 108.904 170.95 107.64C170.95 106.376 171.206 105.248 171.718 104.256C172.23 103.264 172.926 102.488 173.806 101.928C174.686 101.368 175.678 101.088 176.782 101.088C177.422 101.088 178.006 101.184 178.534 101.376C179.062 101.552 179.526 101.808 179.926 102.144C180.326 102.48 180.654 102.864 180.91 103.296C181.182 103.728 181.366 104.192 181.462 104.688L180.814 104.52V101.352H183.79V114H180.79V110.976L181.486 110.856C181.374 111.288 181.166 111.712 180.862 112.128C180.574 112.528 180.206 112.888 179.758 113.208C179.326 113.512 178.838 113.76 178.294 113.952C177.766 114.144 177.198 114.24 176.59 114.24ZM177.406 111.624C178.094 111.624 178.702 111.456 179.23 111.12C179.758 110.784 180.166 110.32 180.454 109.728C180.758 109.12 180.91 108.424 180.91 107.64C180.91 106.872 180.758 106.192 180.454 105.6C180.166 105.008 179.758 104.544 179.23 104.208C178.702 103.872 178.094 103.704 177.406 103.704C176.718 103.704 176.11 103.872 175.582 104.208C175.07 104.544 174.67 105.008 174.382 105.6C174.094 106.192 173.95 106.872 173.95 107.64C173.95 108.424 174.094 109.12 174.382 109.728C174.67 110.32 175.07 110.784 175.582 111.12C176.11 111.456 176.718 111.624 177.406 111.624ZM187.212 114V101.352H190.116L190.164 105.384L189.756 104.472C189.932 103.832 190.236 103.256 190.668 102.744C191.1 102.232 191.596 101.832 192.156 101.544C192.732 101.24 193.332 101.088 193.956 101.088C194.228 101.088 194.484 101.112 194.724 101.16C194.98 101.208 195.188 101.264 195.348 101.328L194.556 104.568C194.38 104.472 194.164 104.392 193.908 104.328C193.652 104.264 193.396 104.232 193.14 104.232C192.74 104.232 192.356 104.312 191.988 104.472C191.636 104.616 191.324 104.824 191.052 105.096C190.78 105.368 190.564 105.688 190.404 106.056C190.26 106.408 190.188 106.808 190.188 107.256V114H187.212ZM199.151 114V98.136H202.103V114H199.151ZM196.655 104.088V101.352H204.863V104.088H196.655Z" fill="white"/>
<path d="M234.999 91.6585C235.546 91.6585 236.041 91.908 236.399 92.3116C236.757 92.7153 236.978 93.273 236.978 93.8894C236.978 94.5059 236.757 95.0636 236.399 95.4672C236.041 95.8708 235.546 96.1204 234.999 96.1204C234.452 96.1204 233.957 95.8708 233.599 95.4672C233.241 95.0636 233.02 94.5059 233.02 93.8894C233.02 93.273 233.241 92.7153 233.599 92.3116C233.954 91.9117 234.452 91.6585 234.999 91.6585ZM243.674 112.074C242.857 111.186 242.072 110.353 241.802 110.177C241.164 109.766 239.693 108.633 239.045 108.647C238.57 108.662 238.124 108.963 237.707 109.579L235.526 113.285L235.116 113.762L234.706 113.285L232.525 109.579C232.109 108.963 231.663 108.658 231.187 108.647C230.54 108.633 229.068 109.766 228.43 110.177L226.914 111.15L216.413 113.74C215.736 114.305 211.27 119.806 212.103 120H230.654H230.667H234.573H252V115.45L248.804 113.751C247.775 113.205 246.711 114.111 246.151 114.415V107.653H251.427C251.954 107.583 252.075 106.86 251.834 106.545L251.512 106.123L248.585 102.248H250.535C250.997 102.149 251.203 101.43 250.799 100.982L247.443 96.5497H248.328C248.947 96.5497 249.25 95.9479 248.895 95.3718L245.62 91.0641C245.431 90.8182 245.243 90.4843 244.927 90.4733C244.562 90.4623 244.334 90.877 244.126 91.1595L241.044 95.2838C240.646 95.8855 240.799 96.5313 241.418 96.5093H242.404L239.025 100.986C238.654 101.507 238.882 102.248 239.491 102.149H241.171L241.262 102.252L238.124 106.402C237.772 107.011 237.938 107.741 238.762 107.657H243.674V112.074ZM222.959 91.7429C223.483 91.5411 224.033 91.5998 224.495 91.853C224.957 92.1062 225.335 92.5648 225.514 93.1556C225.693 93.7463 225.644 94.3664 225.416 94.8875C225.192 95.4085 224.785 95.8341 224.261 96.036C223.737 96.2378 223.187 96.1827 222.724 95.9259C222.262 95.6727 221.885 95.214 221.706 94.6233C221.526 94.0325 221.575 93.4124 221.803 92.8914C222.031 92.3704 222.431 91.9484 222.959 91.7429ZM228.157 98.0871C228.079 97.7642 228.251 97.4303 228.538 97.3459C228.824 97.2578 229.12 97.4523 229.195 97.7752L229.368 98.4944L229.391 98.4834L229.397 98.4797C229.602 98.4026 229.84 98.4503 230.048 98.5898C230.198 98.6888 230.331 98.8319 230.426 99.0117C230.523 99.1915 230.582 99.4044 230.582 99.6392C230.579 99.9768 230.449 100.351 230.116 100.725C230.103 100.74 230.087 100.755 230.068 100.758L229.921 100.824L231.458 107.282C231.36 107.268 231.259 107.253 231.161 107.253C230.924 107.246 230.657 107.315 230.38 107.425L228.915 101.272L228.538 101.441L228.398 101.5C227.581 101.826 226.985 102.065 225.947 101.775C225.94 101.771 225.934 101.771 225.924 101.767C225.198 101.452 224.821 101.008 224.456 100.575L224.404 100.512L223.938 103.844C224.355 104.138 224.768 104.358 225.159 104.563C226.347 105.187 227.324 105.705 227.535 107.807C227.574 108.185 227.555 108.541 227.539 108.926V108.933C227.535 108.989 227.532 109.047 227.529 109.187L227.076 109.477C226.562 109.513 225.983 109.638 225.371 109.821C225.38 109.543 225.393 109.267 225.406 108.992L225.416 108.801C225.426 108.581 225.436 108.379 225.426 108.189C225.416 108.009 225.387 107.84 225.319 107.675L225.299 107.631C225.224 107.451 225.156 107.279 225.055 107.227C224.85 107.121 224.531 106.989 224.163 106.853C223.743 106.695 223.274 106.537 222.861 106.409C222.558 107.543 222.145 108.291 221.706 109.594C221.553 110.042 221.4 110.482 221.24 110.904C221.09 110.977 220.95 111.047 220.814 111.117C220.137 111.458 219.668 111.722 218.949 111.55C218.874 111.531 218.796 111.517 218.717 111.498C219.007 110.651 219.313 109.693 219.613 108.728C220.062 107.282 220.491 106.424 220.807 105.242C220.618 104.982 220.439 104.692 220.316 104.369C220.179 104.017 220.114 103.631 220.182 103.22L220.843 99.1879L220.807 99.1842C220.576 99.1732 220.387 99.1622 220.169 99.2723C219.866 99.4227 219.632 99.7236 219.365 100.061C219.258 100.197 219.147 100.34 219.02 100.483L219.01 100.49C218.916 100.601 218.818 100.714 218.724 100.821L217.555 102.153C217.503 102.211 217.425 102.211 217.373 102.153L216.1 100.645C216.052 100.586 216.052 100.494 216.104 100.439L217.269 99.1108C217.37 98.9971 217.458 98.8943 217.539 98.7989L217.552 98.7842C218.076 98.1385 218.506 97.6174 219.053 97.2688C219.609 96.9166 220.273 96.7368 221.269 96.7882H221.273C221.627 96.7918 222.047 96.8359 222.392 96.8726C222.552 96.8872 222.698 96.9056 222.819 96.9129C224.495 97.0377 225.283 98.032 225.891 98.8063C226.162 99.1475 226.393 99.4447 226.647 99.5805C226.764 99.6429 226.953 99.5548 227.164 99.4557C227.291 99.3933 227.428 99.331 227.571 99.2869C227.665 99.2466 227.714 99.2246 227.753 99.2099C227.805 99.1879 227.838 99.1732 227.861 99.1622L228.359 98.9384L228.157 98.0871ZM233.228 90.8366C233.166 90.7192 233.202 90.5651 233.31 90.4954C233.414 90.4256 233.551 90.466 233.612 90.5871L233.896 91.1411C233.957 91.2586 233.922 91.4127 233.814 91.4824C233.707 91.5521 233.573 91.5117 233.511 91.3907L233.228 90.8366ZM234.82 90.2495C234.82 90.1101 234.918 90 235.041 90C235.165 90 235.263 90.1137 235.263 90.2495V90.8916C235.263 91.0311 235.165 91.1411 235.041 91.1411C234.918 91.1411 234.82 91.0274 234.82 90.8916V90.2495ZM236.461 90.6385C236.522 90.521 236.656 90.477 236.763 90.5467C236.867 90.6164 236.906 90.7669 236.845 90.888L236.561 91.442C236.5 91.5631 236.366 91.6035 236.259 91.5338C236.151 91.464 236.115 91.3136 236.177 91.1925L236.461 90.6385ZM237.707 91.9007C237.815 91.831 237.948 91.8713 238.01 91.9924C238.072 92.1098 238.036 92.2639 237.929 92.3337L237.437 92.6529C237.333 92.7226 237.196 92.6822 237.134 92.5612C237.072 92.4437 237.108 92.2896 237.216 92.2199L237.707 91.9007ZM238.228 93.695C238.352 93.695 238.449 93.805 238.449 93.9445C238.449 94.0839 238.348 94.194 238.228 94.194H237.658C237.535 94.194 237.437 94.0839 237.437 93.9445C237.437 93.805 237.535 93.695 237.658 93.695H238.228ZM237.883 95.5443C237.987 95.614 238.026 95.7644 237.964 95.8855C237.903 96.0029 237.769 96.047 237.662 95.9773L237.17 95.658C237.066 95.5883 237.027 95.4379 237.089 95.3168C237.151 95.1957 237.284 95.1553 237.391 95.225L237.883 95.5443ZM236.767 96.9496C236.828 97.067 236.793 97.2211 236.685 97.2909C236.581 97.3606 236.444 97.3202 236.382 97.1991L236.099 96.6451C236.037 96.5276 236.073 96.3735 236.181 96.3038C236.285 96.2341 236.421 96.2745 236.483 96.3955L236.767 96.9496ZM235.175 97.5367C235.175 97.6761 235.074 97.7862 234.953 97.7862C234.83 97.7862 234.732 97.6725 234.732 97.5367V96.8946C234.732 96.7551 234.83 96.6451 234.953 96.6451C235.077 96.6451 235.175 96.7551 235.175 96.8946V97.5367ZM233.534 97.1477C233.472 97.2652 233.339 97.3092 233.232 97.2395C233.127 97.1698 233.088 97.0193 233.15 96.8982L233.433 96.3442C233.495 96.2268 233.629 96.1827 233.736 96.2524C233.843 96.3222 233.879 96.4726 233.817 96.5937L233.534 97.1477ZM232.288 95.8855C232.183 95.9552 232.047 95.9149 231.985 95.7938C231.923 95.6764 231.959 95.5223 232.066 95.4525L232.558 95.1333C232.662 95.0636 232.799 95.104 232.86 95.225C232.922 95.3425 232.887 95.4966 232.779 95.5663L232.288 95.8855ZM231.767 94.0912C231.643 94.0912 231.545 93.9775 231.545 93.8417C231.545 93.7023 231.646 93.5922 231.767 93.5922H232.336C232.46 93.5922 232.558 93.7023 232.558 93.8417C232.558 93.9812 232.46 94.0912 232.336 94.0912H231.767ZM232.112 92.2419C232.008 92.1722 231.969 92.0218 232.03 91.9007C232.092 91.7833 232.226 91.7392 232.333 91.809L232.825 92.1282C232.932 92.1979 232.968 92.3483 232.906 92.4694C232.844 92.5868 232.711 92.6309 232.603 92.5612L232.112 92.2419Z" fill="#1A6013"/>
<defs>
<clipPath id="clip0_16_25">
<rect width="20" height="20" fill="white" transform="translate(88)"/>
</clipPath>
<clipPath id="clip1_16_25">
<rect width="20" height="20" fill="white" transform="translate(242 20)"/>
</clipPath>
</defs>
</svg>
