<svg width="327" height="96" viewBox="0 0 327 96" fill="none" xmlns="http://www.w3.org/2000/svg">
<path d="M157.824 84.48C155.136 84.48 152.704 84.048 150.528 83.184C148.352 82.32 146.48 81.104 144.912 79.536C143.344 77.968 142.144 76.128 141.312 74.016C140.48 71.872 140.064 69.552 140.064 67.056C140.064 64.56 140.496 62.272 141.36 60.192C142.256 58.08 143.52 56.24 145.152 54.672C146.784 53.104 148.704 51.888 150.912 51.024C153.152 50.16 155.584 49.728 158.208 49.728C160.064 49.728 161.808 49.968 163.44 50.448C165.104 50.928 166.608 51.584 167.952 52.416C169.296 53.248 170.432 54.208 171.36 55.296L166.416 60.528C165.616 59.76 164.784 59.12 163.92 58.608C163.088 58.096 162.192 57.696 161.232 57.408C160.272 57.088 159.248 56.928 158.16 56.928C156.752 56.928 155.456 57.184 154.272 57.696C153.12 58.208 152.096 58.928 151.2 59.856C150.336 60.752 149.664 61.824 149.184 63.072C148.704 64.288 148.464 65.616 148.464 67.056C148.464 68.496 148.72 69.84 149.232 71.088C149.744 72.336 150.448 73.424 151.344 74.352C152.24 75.248 153.296 75.968 154.512 76.512C155.76 77.024 157.088 77.28 158.496 77.28C159.488 77.28 160.416 77.12 161.28 76.8C162.176 76.48 162.944 76.048 163.584 75.504C164.224 74.96 164.736 74.32 165.12 73.584C165.504 72.816 165.696 72 165.696 71.136V69.888L166.752 71.52H157.488V65.136H173.28C173.344 65.488 173.392 65.968 173.424 66.576C173.456 67.184 173.472 67.776 173.472 68.352C173.504 68.928 173.52 69.36 173.52 69.648C173.52 71.824 173.12 73.824 172.32 75.648C171.552 77.44 170.464 78.992 169.056 80.304C167.648 81.616 165.984 82.64 164.064 83.376C162.144 84.112 160.064 84.48 157.824 84.48ZM179.771 84V50.4H203.195V57.36H187.691V77.04H203.675V84H179.771ZM183.611 70.224V63.6H201.035V70.224H183.611ZM210.708 84V50.4H218.004L235.62 74.4L234.036 74.16C233.876 73.104 233.748 72.096 233.652 71.136C233.556 70.176 233.46 69.232 233.364 68.304C233.3 67.376 233.236 66.432 233.172 65.472C233.14 64.512 233.108 63.472 233.076 62.352C233.076 61.232 233.076 60.016 233.076 58.704V50.4H240.996V84H233.604L215.22 59.232L217.668 59.568C217.828 61.104 217.956 62.416 218.052 63.504C218.18 64.56 218.276 65.504 218.34 66.336C218.436 67.168 218.5 67.92 218.532 68.592C218.564 69.264 218.58 69.936 218.58 70.608C218.612 71.248 218.628 71.968 218.628 72.768V84H210.708ZM248.659 84V48.48H256.339V84H248.659ZM278.165 84.288C275.381 84.288 272.901 83.728 270.725 82.608C268.549 81.456 266.837 79.888 265.589 77.904C264.373 75.92 263.765 73.648 263.765 71.088V50.4H272.021V70.656C272.021 71.872 272.293 72.976 272.837 73.968C273.381 74.928 274.117 75.696 275.045 76.272C275.973 76.816 277.013 77.088 278.165 77.088C279.381 77.088 280.453 76.816 281.381 76.272C282.341 75.696 283.109 74.928 283.685 73.968C284.261 72.976 284.549 71.872 284.549 70.656V50.4H292.517V71.088C292.517 73.648 291.893 75.92 290.645 77.904C289.429 79.888 287.733 81.456 285.557 82.608C283.381 83.728 280.917 84.288 278.165 84.288ZM311.376 84.48C309.168 84.48 307.168 84.224 305.376 83.712C303.616 83.168 302.048 82.4 300.672 81.408C299.296 80.384 298.064 79.184 296.976 77.808L301.92 72.192C303.52 74.336 305.12 75.776 306.72 76.512C308.352 77.248 310.032 77.616 311.76 77.616C312.624 77.616 313.408 77.504 314.112 77.28C314.816 77.056 315.36 76.736 315.744 76.32C316.128 75.872 316.32 75.328 316.32 74.688C316.32 74.208 316.192 73.776 315.936 73.392C315.712 73.008 315.392 72.672 314.976 72.384C314.56 72.096 314.064 71.84 313.488 71.616C312.912 71.36 312.304 71.152 311.664 70.992C311.024 70.8 310.368 70.64 309.696 70.512C307.84 70.096 306.224 69.584 304.848 68.976C303.472 68.368 302.32 67.632 301.392 66.768C300.496 65.872 299.824 64.864 299.376 63.744C298.928 62.592 298.704 61.312 298.704 59.904C298.704 58.4 299.04 57.024 299.712 55.776C300.416 54.496 301.344 53.408 302.496 52.512C303.68 51.584 305.04 50.88 306.576 50.4C308.112 49.888 309.712 49.632 311.376 49.632C313.584 49.632 315.472 49.872 317.04 50.352C318.64 50.8 320 51.456 321.12 52.32C322.272 53.184 323.248 54.224 324.048 55.44L319.008 60.288C318.336 59.456 317.6 58.768 316.8 58.224C316.032 57.68 315.2 57.264 314.304 56.976C313.44 56.688 312.544 56.544 311.616 56.544C310.656 56.544 309.824 56.672 309.12 56.928C308.448 57.152 307.92 57.488 307.536 57.936C307.152 58.352 306.96 58.864 306.96 59.472C306.96 60.016 307.12 60.48 307.44 60.864C307.76 61.248 308.192 61.6 308.736 61.92C309.28 62.208 309.904 62.464 310.608 62.688C311.312 62.88 312.048 63.04 312.816 63.168C314.576 63.52 316.16 63.984 317.568 64.56C319.008 65.136 320.24 65.84 321.264 66.672C322.32 67.504 323.12 68.496 323.664 69.648C324.24 70.768 324.528 72.08 324.528 73.584C324.528 75.92 323.952 77.904 322.8 79.536C321.68 81.136 320.128 82.368 318.144 83.232C316.192 84.064 313.936 84.48 311.376 84.48Z" fill="#1A6013"/>
<g clip-path="url(#clip0_16_26)">
<path fill-rule="evenodd" clip-rule="evenodd" d="M97.989 -0.0343886C97.8406 -0.0351886 97.7592 0.0660114 97.7364 0.184411L95.5528 7.55281C93.0888 8.28201 90.6226 9.00801 88.1628 9.74341C88.0348 9.78181 87.9652 9.85821 87.9656 9.99381C87.966 10.1292 88.085 10.2102 88.1954 10.2442L95.5454 12.4218C96.2774 14.8944 97.0054 17.369 97.7434 19.8372C97.7818 19.9652 97.8582 20.0348 97.9938 20.0344C98.1292 20.034 98.2102 19.915 98.2442 19.8046L100.429 12.4296L107.812 10.2422C107.959 10.1944 108.034 10.1374 108.034 9.98901C108.035 9.84061 107.934 9.75921 107.816 9.73641L100.422 7.54541L98.2422 0.187811C98.1944 0.0410114 98.1374 -0.0335886 97.989 -0.0341886V-0.0343886ZM98 8.50001C98.3978 8.50001 98.7793 8.65805 99.0606 8.93935C99.3419 9.22065 99.5 9.60219 99.5 10C99.5 10.3978 99.3419 10.7794 99.0606 11.0607C98.7793 11.342 98.3978 11.5 98 11.5C97.6022 11.5 97.2206 11.342 96.9393 11.0607C96.658 10.7794 96.5 10.3978 96.5 10C96.5 9.60219 96.658 9.22065 96.9393 8.93935C97.2206 8.65805 97.6022 8.50001 98 8.50001Z" fill="#1A6013"/>
<path fill-rule="evenodd" clip-rule="evenodd" d="M104.919 2.82001C104.86 2.82024 104.802 2.83875 104.754 2.87301L100.532 5.16501C100.696 5.75061 100.867 6.33201 101.062 6.90041L102.834 7.42541L105.109 3.23321C105.179 3.09541 105.192 3.00241 105.087 2.89681C105.035 2.84421 104.977 2.82121 104.919 2.82001ZM91.059 2.82141C91.0066 2.82681 90.9568 2.85241 90.909 2.90041C90.8134 2.99641 90.8406 3.13781 90.8946 3.23981L93.1754 7.44141C93.758 7.27801 94.3378 7.10781 94.9074 6.91401L95.4316 5.14541C94.0298 4.38341 92.628 3.61941 91.2254 2.86241C91.1664 2.83081 91.1114 2.81621 91.059 2.82141ZM102.834 12.5304C102.238 12.6968 101.648 12.8704 101.074 13.0692C100.904 13.6542 100.728 14.2382 100.554 14.8222L104.767 17.1094C104.905 17.1794 104.998 17.1918 105.103 17.0874C105.209 16.9832 105.194 16.8542 105.127 16.7542L102.834 12.5304ZM93.1564 12.5476C92.3904 13.9564 91.6232 15.3646 90.8624 16.7742C90.799 16.8922 90.8044 16.9954 90.9004 17.091C90.9964 17.1866 91.1378 17.1594 91.2398 17.1054L95.4414 14.8246C95.2758 14.2334 95.1032 13.6452 94.9066 13.0672C94.3226 12.8972 93.7396 12.7218 93.1564 12.5476Z" fill="#1A6013"/>
</g>
<g clip-path="url(#clip1_16_26)">
<path fill-rule="evenodd" clip-rule="evenodd" d="M251.989 19.9656C251.841 19.9648 251.759 20.066 251.736 20.1844L249.553 27.5528C247.089 28.282 244.623 29.008 242.163 29.7434C242.035 29.7818 241.965 29.8582 241.966 29.9938C241.966 30.1292 242.085 30.2102 242.195 30.2442L249.545 32.4218C250.277 34.8944 251.005 37.369 251.743 39.8372C251.782 39.9652 251.858 40.0348 251.994 40.0344C252.129 40.034 252.21 39.915 252.244 39.8046L254.429 32.4296L261.812 30.2422C261.959 30.1944 262.034 30.1374 262.034 29.989C262.035 29.8406 261.934 29.7592 261.816 29.7364L254.422 27.5454L252.242 20.1878C252.194 20.041 252.137 19.9664 251.989 19.9658V19.9656ZM252 28.5C252.398 28.5 252.779 28.658 253.061 28.9393C253.342 29.2207 253.5 29.6022 253.5 30C253.5 30.3978 253.342 30.7794 253.061 31.0607C252.779 31.342 252.398 31.5 252 31.5C251.602 31.5 251.221 31.342 250.939 31.0607C250.658 30.7794 250.5 30.3978 250.5 30C250.5 29.6022 250.658 29.2207 250.939 28.9393C251.221 28.658 251.602 28.5 252 28.5Z" fill="white"/>
<path fill-rule="evenodd" clip-rule="evenodd" d="M258.919 22.82C258.86 22.8202 258.802 22.8387 258.754 22.873L254.532 25.165C254.696 25.7506 254.867 26.332 255.062 26.9004L256.834 27.4254L259.109 23.2332C259.179 23.0954 259.192 23.0024 259.087 22.8968C259.035 22.8442 258.977 22.8212 258.919 22.82ZM245.059 22.8214C245.007 22.8268 244.957 22.8524 244.909 22.9004C244.813 22.9964 244.841 23.1378 244.895 23.2398L247.175 27.4414C247.758 27.278 248.338 27.1078 248.907 26.914L249.432 25.1454C248.03 24.3834 246.628 23.6194 245.225 22.8624C245.166 22.8308 245.111 22.8162 245.059 22.8214ZM256.834 32.5304C256.238 32.6968 255.648 32.8704 255.074 33.0692C254.904 33.6542 254.728 34.2382 254.554 34.8222L258.767 37.1094C258.905 37.1794 258.998 37.1918 259.103 37.0874C259.209 36.9832 259.194 36.8542 259.127 36.7542L256.834 32.5304ZM247.156 32.5476C246.39 33.9564 245.623 35.3646 244.862 36.7742C244.799 36.8922 244.804 36.9954 244.9 37.091C244.996 37.1866 245.138 37.1594 245.24 37.1054L249.441 34.8246C249.276 34.2334 249.103 33.6452 248.907 33.0672C248.323 32.8972 247.74 32.7218 247.156 32.5476Z" fill="white"/>
</g>
<path d="M15.36 74V38.8H2.048V29.2H39.872V38.8H26.24V74H15.36ZM47.5695 74V29.2H67.7295C70.5882 29.2 73.1695 29.8187 75.4735 31.056C77.8202 32.2933 79.6548 34 80.9775 36.176C82.3002 38.3093 82.9615 40.7413 82.9615 43.472C82.9615 46.288 82.3002 48.8267 80.9775 51.088C79.6548 53.3067 77.8415 55.056 75.5375 56.336C73.2335 57.616 70.6308 58.256 67.7295 58.256H57.9375V74H47.5695ZM72.4015 74L61.0095 53.776L72.1455 52.176L84.8175 74H72.4015ZM57.9375 49.936H66.7695C67.8788 49.936 68.8388 49.7013 69.6495 49.232C70.5028 48.72 71.1428 48.016 71.5695 47.12C72.0388 46.224 72.2735 45.2 72.2735 44.048C72.2735 42.896 72.0175 41.8933 71.5055 41.04C70.9935 40.144 70.2468 39.4613 69.2655 38.992C68.3268 38.5227 67.1748 38.288 65.8095 38.288H57.9375V49.936ZM91.483 74V26.64H101.723V74H91.483ZM111.945 74V29.2H131.273C134.089 29.2 136.585 29.84 138.761 31.12C140.979 32.4 142.729 34.1493 144.009 36.368C145.331 38.5867 145.993 41.0827 145.993 43.856C145.993 46.7573 145.331 49.36 144.009 51.664C142.729 53.9253 140.979 55.7173 138.761 57.04C136.585 58.3627 134.089 59.024 131.273 59.024H122.825V74H111.945ZM122.633 49.488H129.737C130.675 49.488 131.529 49.2533 132.297 48.784C133.065 48.3147 133.683 47.6747 134.153 46.864C134.622 46.0533 134.857 45.1147 134.857 44.048C134.857 42.9387 134.622 42 134.153 41.232C133.683 40.464 133.065 39.8667 132.297 39.44C131.529 39.0133 130.675 38.8 129.737 38.8H122.633V49.488Z" fill="white"/>
<defs>
<clipPath id="clip0_16_26">
<rect width="20" height="20" fill="white" transform="translate(88)"/>
</clipPath>
<clipPath id="clip1_16_26">
<rect width="20" height="20" fill="white" transform="translate(242 20)"/>
</clipPath>
</defs>
</svg>
