<svg width="701" height="649" viewBox="0 0 701 649" fill="none" xmlns="http://www.w3.org/2000/svg">
<rect width="701" height="649" rx="100" fill="black"/>
<path d="M339.585 333.8C334.653 333.8 330.191 333.08 326.198 331.64C322.205 330.2 318.771 328.173 315.893 325.56C313.016 322.947 310.815 319.88 309.288 316.36C307.761 312.787 306.998 308.92 306.998 304.76C306.998 300.6 307.791 296.787 309.376 293.32C311.02 289.8 313.339 286.733 316.334 284.12C319.328 281.507 322.851 279.48 326.903 278.04C331.013 276.6 335.475 275.88 340.29 275.88C343.695 275.88 346.895 276.28 349.89 277.08C352.943 277.88 355.703 278.973 358.169 280.36C360.635 281.747 362.719 283.347 364.422 285.16L355.35 293.88C353.882 292.6 352.356 291.533 350.771 290.68C349.244 289.827 347.6 289.16 345.838 288.68C344.077 288.147 342.198 287.88 340.202 287.88C337.618 287.88 335.24 288.307 333.068 289.16C330.954 290.013 329.075 291.213 327.431 292.76C325.846 294.253 324.613 296.04 323.732 298.12C322.851 300.147 322.411 302.36 322.411 304.76C322.411 307.16 322.881 309.4 323.82 311.48C324.76 313.56 326.051 315.373 327.695 316.92C329.339 318.413 331.277 319.613 333.508 320.52C335.798 321.373 338.235 321.8 340.818 321.8C342.638 321.8 344.341 321.533 345.926 321C347.571 320.467 348.98 319.747 350.154 318.84C351.328 317.933 352.268 316.867 352.972 315.64C353.677 314.36 354.029 313 354.029 311.56V309.48L355.967 312.2H338.969V301.56H367.945C368.062 302.147 368.15 302.947 368.209 303.96C368.268 304.973 368.297 305.96 368.297 306.92C368.356 307.88 368.385 308.6 368.385 309.08C368.385 312.707 367.651 316.04 366.183 319.08C364.774 322.067 362.778 324.653 360.194 326.84C357.611 329.027 354.558 330.733 351.035 331.96C347.512 333.187 343.695 333.8 339.585 333.8ZM379.855 333V277H422.835V288.6H394.387V321.4H423.715V333H379.855ZM386.901 310.04V299H418.871V310.04H386.901ZM436.62 333V277H450.007L482.33 317L479.424 316.6C479.13 314.84 478.895 313.16 478.719 311.56C478.543 309.96 478.367 308.387 478.191 306.84C478.073 305.293 477.956 303.72 477.838 302.12C477.78 300.52 477.721 298.787 477.662 296.92C477.662 295.053 477.662 293.027 477.662 290.84V277H492.194V333H478.631L444.899 291.72L449.391 292.28C449.684 294.84 449.919 297.027 450.095 298.84C450.33 300.6 450.506 302.173 450.624 303.56C450.8 304.947 450.917 306.2 450.976 307.32C451.035 308.44 451.064 309.56 451.064 310.68C451.123 311.747 451.152 312.947 451.152 314.28V333H436.62ZM506.255 333V273.8H520.347V333H506.255ZM560.394 333.48C555.286 333.48 550.736 332.547 546.743 330.68C542.75 328.76 539.609 326.147 537.319 322.84C535.088 319.533 533.972 315.747 533.972 311.48V277H549.121V310.76C549.121 312.787 549.62 314.627 550.618 316.28C551.616 317.88 552.967 319.16 554.67 320.12C556.372 321.027 558.281 321.48 560.394 321.48C562.626 321.48 564.593 321.027 566.295 320.12C568.057 319.16 569.466 317.88 570.523 316.28C571.58 314.627 572.108 312.787 572.108 310.76V277H586.728V311.48C586.728 315.747 585.583 319.533 583.293 322.84C581.062 326.147 577.95 328.76 573.958 330.68C569.965 332.547 565.444 333.48 560.394 333.48ZM621.332 333.8C617.281 333.8 613.611 333.373 610.323 332.52C607.093 331.613 604.216 330.333 601.692 328.68C599.167 326.973 596.906 324.973 594.91 322.68L603.982 313.32C606.917 316.893 609.853 319.293 612.789 320.52C615.783 321.747 618.866 322.36 622.037 322.36C623.622 322.36 625.06 322.173 626.352 321.8C627.644 321.427 628.642 320.893 629.347 320.2C630.051 319.453 630.404 318.547 630.404 317.48C630.404 316.68 630.169 315.96 629.699 315.32C629.288 314.68 628.701 314.12 627.938 313.64C627.174 313.16 626.264 312.733 625.207 312.36C624.15 311.933 623.035 311.587 621.86 311.32C620.686 311 619.482 310.733 618.249 310.52C614.844 309.827 611.879 308.973 609.354 307.96C606.829 306.947 604.715 305.72 603.013 304.28C601.369 302.787 600.136 301.107 599.314 299.24C598.492 297.32 598.081 295.187 598.081 292.84C598.081 290.333 598.697 288.04 599.93 285.96C601.222 283.827 602.925 282.013 605.038 280.52C607.211 278.973 609.706 277.8 612.525 277C615.343 276.147 618.279 275.72 621.332 275.72C625.383 275.72 628.848 276.12 631.725 276.92C634.66 277.667 637.156 278.76 639.211 280.2C641.325 281.64 643.115 283.373 644.583 285.4L635.336 293.48C634.103 292.093 632.752 290.947 631.284 290.04C629.875 289.133 628.348 288.44 626.704 287.96C625.119 287.48 623.475 287.24 621.772 287.24C620.011 287.24 618.484 287.453 617.193 287.88C615.96 288.253 614.991 288.813 614.286 289.56C613.582 290.253 613.229 291.107 613.229 292.12C613.229 293.027 613.523 293.8 614.11 294.44C614.697 295.08 615.49 295.667 616.488 296.2C617.486 296.68 618.631 297.107 619.923 297.48C621.215 297.8 622.565 298.067 623.974 298.28C627.204 298.867 630.11 299.64 632.693 300.6C635.336 301.56 637.596 302.733 639.475 304.12C641.413 305.507 642.881 307.16 643.879 309.08C644.936 310.947 645.464 313.133 645.464 315.64C645.464 319.533 644.407 322.84 642.293 325.56C640.238 328.227 637.391 330.28 633.75 331.72C630.169 333.107 626.029 333.8 621.332 333.8Z" fill="#1A6013"/>
<mask id="mask0_40_20" style="mask-type:luminance" maskUnits="userSpaceOnUse" x="211" y="193" width="38" height="34">
<path d="M248.165 193H211.468V226.333H248.165V193Z" fill="white"/>
</mask>
<g mask="url(#mask0_40_20)">
<path fill-rule="evenodd" clip-rule="evenodd" d="M229.796 192.943C229.524 192.941 229.374 193.11 229.333 193.307L225.326 205.588C220.805 206.803 216.28 208.013 211.766 209.239C211.532 209.303 211.404 209.43 211.405 209.656C211.405 209.882 211.624 210.017 211.826 210.074L225.312 213.703C226.656 217.824 227.991 221.948 229.345 226.062C229.416 226.275 229.556 226.391 229.805 226.391C230.053 226.39 230.202 226.192 230.264 226.008L234.273 213.716L247.82 210.07C248.09 209.991 248.227 209.896 248.227 209.648C248.229 209.401 248.044 209.265 247.827 209.227L234.26 205.576L230.261 193.313C230.173 193.068 230.068 192.944 229.796 192.943ZM229.816 207.167C230.546 207.167 231.246 207.43 231.762 207.899C232.278 208.368 232.569 209.004 232.569 209.667C232.569 210.33 232.278 210.966 231.762 211.434C231.246 211.903 230.546 212.167 229.816 212.167C229.086 212.167 228.386 211.903 227.87 211.434C227.354 210.966 227.064 210.33 227.064 209.667C227.064 209.004 227.354 208.368 227.87 207.899C228.386 207.43 229.086 207.167 229.816 207.167Z" fill="#1A6013"/>
<path fill-rule="evenodd" clip-rule="evenodd" d="M242.512 197.7C242.403 197.7 242.297 197.731 242.209 197.788L234.462 201.608C234.763 202.584 235.077 203.553 235.435 204.501L238.686 205.376L242.86 198.389C242.989 198.159 243.013 198.004 242.82 197.828C242.724 197.74 242.618 197.702 242.512 197.7ZM217.08 197.702C216.984 197.711 216.893 197.754 216.805 197.834C216.63 197.994 216.68 198.23 216.779 198.4L220.964 205.402C222.033 205.13 223.097 204.846 224.142 204.523L225.104 201.576C222.531 200.306 219.959 199.032 217.386 197.771C217.277 197.718 217.177 197.694 217.08 197.702ZM238.686 213.884C237.592 214.161 236.51 214.451 235.457 214.782C235.145 215.757 234.822 216.73 234.502 217.704L242.233 221.516C242.486 221.632 242.657 221.653 242.849 221.479C243.044 221.305 243.016 221.09 242.893 220.924L238.686 213.884ZM220.929 213.913C219.523 216.261 218.116 218.608 216.72 220.957C216.603 221.154 216.613 221.326 216.789 221.485C216.966 221.644 217.225 221.599 217.412 221.509L225.122 217.708C224.818 216.722 224.501 215.742 224.14 214.779C223.069 214.495 221.999 214.203 220.929 213.913Z" fill="#1A6013"/>
</g>
<mask id="mask1_40_20" style="mask-type:luminance" maskUnits="userSpaceOnUse" x="494" y="226" width="37" height="34">
<path d="M530.734 226.333H494.037V259.667H530.734V226.333Z" fill="white"/>
</mask>
<g mask="url(#mask1_40_20)">
<path fill-rule="evenodd" clip-rule="evenodd" d="M512.365 226.276C512.094 226.275 511.943 226.443 511.901 226.641L507.895 238.921C503.374 240.137 498.85 241.347 494.336 242.572C494.101 242.636 493.973 242.764 493.974 242.99C493.974 243.215 494.193 243.35 494.395 243.407L507.881 247.036C509.224 251.157 510.56 255.282 511.914 259.395C511.985 259.609 512.125 259.725 512.374 259.724C512.622 259.723 512.771 259.525 512.833 259.341L516.842 247.049L530.389 243.404C530.659 243.324 530.796 243.229 530.796 242.982C530.798 242.734 530.613 242.599 530.396 242.561L516.829 238.909L512.829 226.646C512.741 226.402 512.637 226.277 512.365 226.276ZM512.385 240.5C513.116 240.5 513.815 240.763 514.332 241.232C514.848 241.701 515.138 242.337 515.138 243C515.138 243.663 514.848 244.299 514.332 244.768C513.815 245.237 513.116 245.5 512.385 245.5C511.655 245.5 510.956 245.237 510.439 244.768C509.923 244.299 509.633 243.663 509.633 243C509.633 242.337 509.923 241.701 510.439 241.232C510.956 240.763 511.655 240.5 512.385 240.5Z" fill="white"/>
<path fill-rule="evenodd" clip-rule="evenodd" d="M525.081 231.033C524.973 231.034 524.866 231.064 524.778 231.122L517.031 234.942C517.332 235.918 517.646 236.887 518.004 237.834L521.255 238.709L525.429 231.722C525.558 231.492 525.582 231.337 525.389 231.161C525.294 231.074 525.187 231.035 525.081 231.033ZM499.65 231.036C499.554 231.045 499.462 231.087 499.374 231.167C499.198 231.327 499.25 231.563 499.349 231.733L503.532 238.736C504.602 238.463 505.666 238.18 506.71 237.857L507.673 234.909C505.101 233.639 502.528 232.366 499.954 231.104C499.846 231.051 499.745 231.027 499.65 231.036ZM521.255 247.217C520.162 247.495 519.079 247.784 518.026 248.115C517.714 249.09 517.391 250.064 517.072 251.037L524.802 254.849C525.055 254.966 525.226 254.986 525.418 254.812C525.613 254.639 525.585 254.424 525.462 254.257L521.255 247.217ZM503.497 247.246C502.092 249.594 500.684 251.941 499.288 254.29C499.173 254.487 499.182 254.659 499.358 254.818C499.534 254.978 499.795 254.932 499.982 254.842L507.69 251.041C507.387 250.056 507.07 249.075 506.71 248.112C505.639 247.829 504.569 247.536 503.497 247.246Z" fill="white"/>
</g>
<path d="M78.1835 316.333V257.667H53.7578V241.667H123.16V257.667H98.1468V316.333H78.1835ZM137.284 316.333V241.667H174.274C179.52 241.667 184.256 242.698 188.484 244.76C192.789 246.822 196.156 249.667 198.583 253.293C201.01 256.849 202.223 260.902 202.223 265.453C202.223 270.147 201.01 274.378 198.583 278.147C196.156 281.845 192.828 284.76 188.601 286.893C184.373 289.027 179.598 290.093 174.274 290.093H156.307V316.333H137.284ZM182.847 316.333L161.944 282.627L182.377 279.96L205.628 316.333H182.847ZM156.307 276.227H172.513C174.548 276.227 176.31 275.836 177.797 275.053C179.363 274.2 180.537 273.027 181.32 271.533C182.181 270.04 182.612 268.333 182.612 266.413C182.612 264.493 182.142 262.822 181.203 261.4C180.263 259.907 178.893 258.769 177.093 257.987C175.37 257.205 173.257 256.813 170.751 256.813H156.307V276.227ZM217.859 316.333V237.4H236.648V316.333H217.859ZM255.404 316.333V241.667H290.868C296.035 241.667 300.615 242.733 304.607 244.867C308.677 247 311.888 249.916 314.237 253.613C316.662 257.311 317.877 261.471 317.877 266.093C317.877 270.929 316.662 275.267 314.237 279.107C311.888 282.876 308.677 285.862 304.607 288.067C300.615 290.271 296.035 291.373 290.868 291.373H275.367V316.333H255.404ZM275.015 275.48H288.05C289.771 275.48 291.338 275.089 292.747 274.307C294.156 273.525 295.29 272.458 296.152 271.107C297.013 269.756 297.444 268.191 297.444 266.413C297.444 264.565 297.013 263 296.152 261.72C295.29 260.44 294.156 259.445 292.747 258.733C291.338 258.022 289.771 257.667 288.05 257.667H275.015V275.48Z" fill="white"/>
<path d="M164.892 383V359.8H156.084V355H179.688V359.8H170.617V383H164.892ZM181.711 383V361.92H187.04L187.128 368.64L186.379 367.12C186.702 366.053 187.26 365.093 188.053 364.24C188.845 363.387 189.755 362.72 190.783 362.24C191.84 361.733 192.941 361.48 194.086 361.48C194.585 361.48 195.055 361.52 195.495 361.6C195.965 361.68 196.346 361.773 196.64 361.88L195.187 367.28C194.864 367.12 194.467 366.987 193.998 366.88C193.528 366.773 193.058 366.72 192.589 366.72C191.855 366.72 191.15 366.853 190.475 367.12C189.829 367.36 189.256 367.707 188.757 368.16C188.258 368.613 187.862 369.147 187.568 369.76C187.304 370.347 187.172 371.013 187.172 371.76V383H181.711ZM208.021 383.4C206.112 383.4 204.38 382.92 202.824 381.96C201.268 381 200.021 379.693 199.081 378.04C198.142 376.387 197.672 374.507 197.672 372.4C197.672 370.293 198.142 368.413 199.081 366.76C200.021 365.107 201.298 363.813 202.912 362.88C204.527 361.947 206.347 361.48 208.373 361.48C209.547 361.48 210.619 361.64 211.588 361.96C212.556 362.253 213.408 362.68 214.142 363.24C214.876 363.8 215.477 364.44 215.947 365.16C216.446 365.88 216.784 366.653 216.96 367.48L215.771 367.2V361.92H221.232V383H215.727V377.96L217.004 377.76C216.799 378.48 216.417 379.187 215.859 379.88C215.331 380.547 214.655 381.147 213.833 381.68C213.041 382.187 212.145 382.6 211.147 382.92C210.178 383.24 209.136 383.4 208.021 383.4ZM209.518 379.04C210.78 379.04 211.896 378.76 212.865 378.2C213.833 377.64 214.582 376.867 215.111 375.88C215.668 374.867 215.947 373.707 215.947 372.4C215.947 371.12 215.668 369.987 215.111 369C214.582 368.013 213.833 367.24 212.865 366.68C211.896 366.12 210.78 365.84 209.518 365.84C208.255 365.84 207.14 366.12 206.171 366.68C205.232 367.24 204.498 368.013 203.969 369C203.441 369.987 203.177 371.12 203.177 372.4C203.177 373.707 203.441 374.867 203.969 375.88C204.498 376.867 205.232 377.64 206.171 378.2C207.14 378.76 208.255 379.04 209.518 379.04ZM234.437 383L224.661 361.92H230.562L237.167 377.68L236.022 377.96L242.98 361.92H248.749L238.488 383H234.437ZM262.943 383.4C260.506 383.4 258.349 382.933 256.47 382C254.62 381.067 253.167 379.8 252.11 378.2C251.083 376.573 250.569 374.72 250.569 372.64C250.569 370.987 250.862 369.48 251.45 368.12C252.037 366.76 252.844 365.587 253.872 364.6C254.929 363.587 256.176 362.813 257.615 362.28C259.083 361.72 260.683 361.44 262.415 361.44C263.941 361.44 265.365 361.707 266.686 362.24C268.007 362.773 269.152 363.507 270.121 364.44C271.09 365.347 271.824 366.44 272.323 367.72C272.851 368.973 273.101 370.347 273.072 371.84L273.028 373.56H254.224L253.211 370.2H268.492L267.787 370.88V370C267.699 369.173 267.406 368.453 266.906 367.84C266.407 367.2 265.762 366.707 264.969 366.36C264.206 365.987 263.354 365.8 262.415 365.8C260.976 365.8 259.758 366.053 258.76 366.56C257.791 367.067 257.057 367.8 256.558 368.76C256.059 369.693 255.809 370.867 255.809 372.28C255.809 373.64 256.117 374.827 256.734 375.84C257.38 376.853 258.275 377.64 259.42 378.2C260.595 378.733 261.96 379 263.516 379C264.602 379 265.6 378.84 266.51 378.52C267.42 378.2 268.404 377.627 269.461 376.8L272.147 380.2C271.354 380.867 270.444 381.44 269.417 381.92C268.418 382.373 267.362 382.733 266.246 383C265.13 383.267 264.029 383.4 262.943 383.4ZM277.914 383V353.4H283.374V383H277.914ZM310.433 383.4C308.378 383.4 306.529 383.093 304.884 382.48C303.27 381.84 301.949 380.933 300.921 379.76L304.444 377C305.325 377.907 306.308 378.56 307.395 378.96C308.481 379.36 309.626 379.56 310.829 379.56C311.328 379.56 311.769 379.507 312.151 379.4C312.562 379.293 312.914 379.133 313.207 378.92C313.501 378.707 313.721 378.467 313.868 378.2C314.044 377.907 314.132 377.587 314.132 377.24C314.132 376.6 313.868 376.093 313.34 375.72C313.046 375.533 312.576 375.333 311.93 375.12C311.314 374.907 310.506 374.693 309.508 374.48C307.923 374.107 306.602 373.68 305.545 373.2C304.488 372.693 303.666 372.133 303.079 371.52C302.58 371.013 302.198 370.44 301.934 369.8C301.699 369.16 301.582 368.467 301.582 367.72C301.582 366.787 301.802 365.947 302.242 365.2C302.712 364.427 303.343 363.76 304.136 363.2C304.928 362.64 305.853 362.213 306.91 361.92C307.967 361.627 309.068 361.48 310.213 361.48C311.387 361.48 312.517 361.613 313.604 361.88C314.719 362.147 315.747 362.533 316.686 363.04C317.655 363.52 318.477 364.107 319.152 364.8L316.158 367.8C315.6 367.32 314.984 366.893 314.308 366.52C313.662 366.147 313.002 365.853 312.327 365.64C311.651 365.4 311.02 365.28 310.433 365.28C309.875 365.28 309.376 365.333 308.936 365.44C308.495 365.52 308.129 365.653 307.835 365.84C307.541 366.027 307.306 366.267 307.13 366.56C306.984 366.827 306.91 367.147 306.91 367.52C306.94 367.84 307.028 368.147 307.174 368.44C307.351 368.707 307.585 368.933 307.879 369.12C308.202 369.307 308.686 369.52 309.332 369.76C309.978 370 310.815 370.227 311.842 370.44C313.281 370.787 314.484 371.173 315.453 371.6C316.422 372.027 317.185 372.52 317.743 373.08C318.301 373.56 318.697 374.12 318.932 374.76C319.167 375.4 319.284 376.107 319.284 376.88C319.284 378.133 318.888 379.253 318.095 380.24C317.332 381.227 316.275 382 314.925 382.56C313.604 383.12 312.106 383.4 310.433 383.4ZM323.969 383V361.92H329.297L329.385 366.16L328.505 366.48C328.769 365.787 329.165 365.147 329.694 364.56C330.222 363.947 330.853 363.427 331.587 363C332.321 362.547 333.099 362.2 333.921 361.96C334.743 361.693 335.58 361.56 336.431 361.56C337.694 361.56 338.809 361.747 339.778 362.12C340.776 362.467 341.598 363.027 342.244 363.8C342.919 364.573 343.418 365.56 343.741 366.76L342.905 366.6L343.257 365.96C343.58 365.32 344.035 364.747 344.622 364.24C345.209 363.707 345.87 363.24 346.604 362.84C347.338 362.413 348.101 362.093 348.894 361.88C349.716 361.667 350.523 361.56 351.316 361.56C353.077 361.56 354.545 361.88 355.719 362.52C356.894 363.16 357.774 364.133 358.362 365.44C358.949 366.747 359.242 368.36 359.242 370.28V383H353.782V370.6C353.782 369.533 353.62 368.653 353.297 367.96C353.004 367.267 352.534 366.76 351.888 366.44C351.272 366.093 350.494 365.92 349.554 365.92C348.82 365.92 348.116 366.04 347.44 366.28C346.795 366.493 346.237 366.813 345.767 367.24C345.297 367.64 344.93 368.107 344.666 368.64C344.402 369.173 344.27 369.76 344.27 370.4V383H338.809V370.56C338.809 369.547 338.648 368.707 338.325 368.04C338.002 367.347 337.532 366.827 336.916 366.48C336.299 366.107 335.551 365.92 334.67 365.92C333.936 365.92 333.246 366.04 332.6 366.28C331.954 366.493 331.396 366.8 330.927 367.2C330.457 367.6 330.09 368.067 329.826 368.6C329.562 369.133 329.429 369.72 329.429 370.36V383H323.969ZM374.018 383.4C372.11 383.4 370.378 382.92 368.822 381.96C367.266 381 366.018 379.693 365.079 378.04C364.14 376.387 363.67 374.507 363.67 372.4C363.67 370.293 364.14 368.413 365.079 366.76C366.018 365.107 367.295 363.813 368.91 362.88C370.525 361.947 372.345 361.48 374.371 361.48C375.545 361.48 376.617 361.64 377.585 361.96C378.554 362.253 379.406 362.68 380.14 363.24C380.873 363.8 381.475 364.44 381.945 365.16C382.444 365.88 382.782 366.653 382.958 367.48L381.769 367.2V361.92H387.229V383H381.725V377.96L383.002 377.76C382.796 378.48 382.415 379.187 381.857 379.88C381.329 380.547 380.653 381.147 379.831 381.68C379.039 382.187 378.143 382.6 377.145 382.92C376.176 383.24 375.134 383.4 374.018 383.4ZM375.516 379.04C376.778 379.04 377.894 378.76 378.862 378.2C379.831 377.64 380.58 376.867 381.108 375.88C381.666 374.867 381.945 373.707 381.945 372.4C381.945 371.12 381.666 369.987 381.108 369C380.58 368.013 379.831 367.24 378.862 366.68C377.894 366.12 376.778 365.84 375.516 365.84C374.253 365.84 373.138 366.12 372.169 366.68C371.229 367.24 370.495 368.013 369.967 369C369.439 369.987 369.174 371.12 369.174 372.4C369.174 373.707 369.439 374.867 369.967 375.88C370.495 376.867 371.229 377.64 372.169 378.2C373.138 378.76 374.253 379.04 375.516 379.04ZM393.508 383V361.92H398.837L398.925 368.64L398.176 367.12C398.499 366.053 399.057 365.093 399.85 364.24C400.642 363.387 401.552 362.72 402.58 362.24C403.637 361.733 404.738 361.48 405.883 361.48C406.382 361.48 406.851 361.52 407.292 361.6C407.762 361.68 408.143 361.773 408.437 361.88L406.984 367.28C406.661 367.12 406.264 366.987 405.795 366.88C405.325 366.773 404.855 366.72 404.385 366.72C403.651 366.72 402.947 366.853 402.272 367.12C401.626 367.36 401.053 367.707 400.554 368.16C400.055 368.613 399.659 369.147 399.365 369.76C399.101 370.347 398.969 371.013 398.969 371.76V383H393.508ZM415.415 383V356.56H420.831V383H415.415ZM410.835 366.48V361.92H425.895V366.48H410.835Z" fill="white"/>
<path d="M481.191 345.764C482.194 345.764 483.103 346.18 483.76 346.853C484.416 347.525 484.822 348.455 484.822 349.482C484.822 350.51 484.416 351.439 483.76 352.112C483.103 352.785 482.194 353.201 481.191 353.201C480.187 353.201 479.279 352.785 478.622 352.112C477.965 351.439 477.56 350.51 477.56 349.482C477.56 348.455 477.965 347.525 478.622 346.853C479.273 346.186 480.187 345.764 481.191 345.764ZM497.108 379.79C495.609 378.31 494.169 376.922 493.673 376.628C492.503 375.943 489.804 374.055 488.615 374.078C487.743 374.103 486.925 374.605 486.16 375.632L482.158 381.808L481.405 382.603L480.653 381.808L476.651 375.632C475.888 374.605 475.07 374.097 474.196 374.078C473.009 374.055 470.308 375.943 469.138 376.628L466.356 378.25L447.088 382.567C445.846 383.508 437.651 392.677 439.18 393H473.218H473.242H480.409H512.385V385.417L506.521 382.585C504.633 381.675 502.681 383.185 501.653 383.692V372.422H511.334C512.301 372.305 512.523 371.1 512.081 370.575L511.49 369.872L506.119 363.413H509.697C510.545 363.248 510.923 362.05 510.182 361.303L504.024 353.916H505.648C506.783 353.916 507.339 352.913 506.688 351.953L500.679 344.774C500.332 344.364 499.987 343.807 499.407 343.789C498.738 343.77 498.319 344.462 497.938 344.933L492.282 351.806C491.552 352.809 491.833 353.886 492.969 353.849H494.778L488.578 361.31C487.897 362.178 488.316 363.413 489.433 363.248H492.516L492.682 363.42L486.925 370.337C486.279 371.352 486.583 372.568 488.095 372.428H497.108V379.79ZM459.099 345.905C460.06 345.568 461.07 345.666 461.917 346.088C462.765 346.51 463.459 347.275 463.787 348.259C464.116 349.244 464.026 350.277 463.607 351.146C463.196 352.014 462.449 352.724 461.488 353.06C460.527 353.396 459.517 353.305 458.668 352.877C457.82 352.455 457.128 351.69 456.8 350.705C456.47 349.721 456.56 348.687 456.978 347.819C457.396 346.951 458.13 346.247 459.099 345.905ZM468.637 356.478C468.493 355.94 468.809 355.384 469.336 355.243C469.86 355.096 470.404 355.42 470.541 355.959L470.859 357.157L470.901 357.139L470.912 357.133C471.288 357.004 471.725 357.084 472.106 357.316C472.382 357.481 472.626 357.72 472.8 358.02C472.978 358.319 473.086 358.674 473.086 359.065C473.081 359.628 472.842 360.252 472.231 360.875C472.207 360.9 472.178 360.925 472.143 360.93L471.873 361.04L474.693 371.803C474.514 371.78 474.328 371.755 474.149 371.755C473.714 371.743 473.224 371.858 472.716 372.042L470.027 361.787L469.336 362.068L469.079 362.167C467.58 362.71 466.486 363.108 464.582 362.625C464.569 362.618 464.558 362.618 464.539 362.612C463.207 362.087 462.516 361.347 461.846 360.625L461.75 360.52L460.895 366.073C461.66 366.563 462.418 366.93 463.136 367.272C465.316 368.312 467.108 369.175 467.495 372.678C467.567 373.308 467.532 373.902 467.503 374.543V374.555C467.495 374.648 467.49 374.745 467.484 374.978L466.653 375.462C465.71 375.522 464.648 375.73 463.525 376.035C463.541 375.572 463.565 375.112 463.589 374.653L463.607 374.335C463.626 373.968 463.644 373.632 463.626 373.315C463.607 373.015 463.554 372.733 463.429 372.458L463.393 372.385C463.255 372.085 463.13 371.798 462.945 371.712C462.569 371.535 461.983 371.315 461.308 371.088C460.538 370.825 459.677 370.562 458.919 370.348C458.363 372.238 457.605 373.485 456.8 375.657C456.519 376.403 456.238 377.137 455.945 377.84C455.67 377.962 455.413 378.078 455.163 378.195C453.921 378.763 453.06 379.203 451.741 378.917C451.604 378.885 451.46 378.862 451.316 378.83C451.848 377.418 452.409 375.822 452.96 374.213C453.783 371.803 454.571 370.373 455.15 368.403C454.804 367.97 454.475 367.487 454.249 366.948C453.998 366.362 453.879 365.718 454.004 365.033L455.216 358.313L455.15 358.307C454.727 358.289 454.38 358.27 453.98 358.454C453.424 358.705 452.994 359.206 452.505 359.768C452.308 359.995 452.105 360.233 451.871 360.472L451.853 360.483C451.681 360.668 451.501 360.857 451.328 361.035L449.183 363.255C449.088 363.352 448.945 363.352 448.849 363.255L446.514 360.742C446.426 360.643 446.426 360.49 446.521 360.398L448.659 358.185C448.844 357.995 449.005 357.824 449.154 357.665L449.178 357.64C450.139 356.564 450.928 355.696 451.932 355.115C452.952 354.528 454.171 354.228 455.998 354.314H456.005C456.655 354.32 457.426 354.393 458.059 354.454C458.352 354.479 458.62 354.509 458.842 354.522C461.917 354.73 463.363 356.387 464.479 357.677C464.976 358.246 465.4 358.741 465.866 358.967C466.081 359.071 466.427 358.925 466.815 358.76C467.048 358.656 467.299 358.552 467.561 358.478C467.734 358.411 467.824 358.374 467.895 358.35C467.991 358.313 468.051 358.289 468.093 358.27L469.007 357.897L468.637 356.478ZM477.941 344.394C477.827 344.199 477.893 343.942 478.092 343.826C478.282 343.709 478.534 343.777 478.646 343.978L479.167 344.902C479.279 345.098 479.215 345.354 479.016 345.471C478.82 345.587 478.574 345.52 478.46 345.318L477.941 344.394ZM480.862 343.416C480.862 343.183 481.042 343 481.268 343C481.495 343 481.675 343.189 481.675 343.416V344.486C481.675 344.719 481.495 344.902 481.268 344.902C481.042 344.902 480.862 344.712 480.862 344.486V343.416ZM483.873 344.064C483.985 343.868 484.231 343.795 484.427 343.911C484.618 344.027 484.69 344.278 484.578 344.48L484.057 345.403C483.945 345.605 483.699 345.672 483.503 345.556C483.305 345.44 483.238 345.189 483.352 344.987L483.873 344.064ZM486.16 346.168C486.358 346.052 486.602 346.119 486.716 346.321C486.829 346.516 486.763 346.773 486.567 346.89L485.664 347.422C485.473 347.538 485.222 347.47 485.108 347.269C484.994 347.073 485.06 346.816 485.259 346.7L486.16 346.168ZM487.116 349.158C487.343 349.158 487.521 349.342 487.521 349.574C487.521 349.807 487.336 349.99 487.116 349.99H486.07C485.844 349.99 485.664 349.807 485.664 349.574C485.664 349.342 485.844 349.158 486.07 349.158H487.116ZM486.482 352.24C486.673 352.357 486.745 352.607 486.631 352.809C486.519 353.005 486.273 353.078 486.077 352.962L485.174 352.43C484.983 352.314 484.912 352.063 485.026 351.861C485.139 351.66 485.383 351.592 485.58 351.708L486.482 352.24ZM484.435 354.583C484.547 354.778 484.482 355.035 484.284 355.152C484.093 355.268 483.842 355.2 483.728 354.998L483.209 354.075C483.095 353.879 483.161 353.623 483.36 353.506C483.55 353.39 483.8 353.458 483.914 353.659L484.435 354.583ZM481.514 355.561C481.514 355.793 481.328 355.977 481.106 355.977C480.881 355.977 480.701 355.787 480.701 355.561V354.491C480.701 354.258 480.881 354.075 481.106 354.075C481.334 354.075 481.514 354.258 481.514 354.491V355.561ZM478.503 354.913C478.389 355.109 478.145 355.182 477.949 355.066C477.756 354.95 477.684 354.699 477.798 354.497L478.317 353.574C478.431 353.378 478.677 353.305 478.873 353.421C479.07 353.537 479.136 353.788 479.022 353.989L478.503 354.913ZM476.216 352.809C476.024 352.925 475.774 352.858 475.66 352.656C475.547 352.461 475.613 352.204 475.809 352.087L476.712 351.556C476.903 351.439 477.154 351.507 477.266 351.708C477.38 351.904 477.316 352.161 477.117 352.277L476.216 352.809ZM475.26 349.819C475.033 349.819 474.853 349.629 474.853 349.403C474.853 349.17 475.038 348.987 475.26 348.987H476.305C476.532 348.987 476.712 349.17 476.712 349.403C476.712 349.635 476.532 349.819 476.305 349.819H475.26ZM475.893 346.736C475.703 346.62 475.631 346.37 475.743 346.168C475.857 345.972 476.103 345.899 476.299 346.015L477.202 346.547C477.398 346.663 477.464 346.914 477.35 347.116C477.237 347.311 476.993 347.385 476.794 347.269L475.893 346.736Z" fill="#1A6013"/>
</svg>
