<svg width="195" height="30" viewBox="0 0 195 30" fill="none" xmlns="http://www.w3.org/2000/svg">
<path d="M5.616 24V10.08H0.816V7.2H13.68V10.08H8.736V24H5.616ZM14.7827 24V11.352H17.6867L17.7347 15.384L17.3267 14.472C17.5027 13.832 17.8067 13.256 18.2387 12.744C18.6707 12.232 19.1667 11.832 19.7267 11.544C20.3027 11.24 20.9027 11.088 21.5267 11.088C21.7987 11.088 22.0547 11.112 22.2947 11.16C22.5507 11.208 22.7587 11.264 22.9187 11.328L22.1267 14.568C21.9507 14.472 21.7347 14.392 21.4787 14.328C21.2227 14.264 20.9667 14.232 20.7107 14.232C20.3107 14.232 19.9267 14.312 19.5587 14.472C19.2067 14.616 18.8947 14.824 18.6227 15.096C18.3507 15.368 18.1347 15.688 17.9747 16.056C17.8307 16.408 17.7587 16.808 17.7587 17.256V24H14.7827ZM29.1212 24.24C28.0812 24.24 27.1372 23.952 26.2892 23.376C25.4412 22.8 24.7612 22.016 24.2492 21.024C23.7372 20.032 23.4812 18.904 23.4812 17.64C23.4812 16.376 23.7372 15.248 24.2492 14.256C24.7612 13.264 25.4572 12.488 26.3372 11.928C27.2172 11.368 28.2092 11.088 29.3132 11.088C29.9532 11.088 30.5372 11.184 31.0652 11.376C31.5932 11.552 32.0572 11.808 32.4572 12.144C32.8572 12.48 33.1852 12.864 33.4412 13.296C33.7132 13.728 33.8972 14.192 33.9932 14.688L33.3452 14.52V11.352H36.3212V24H33.3212V20.976L34.0172 20.856C33.9052 21.288 33.6972 21.712 33.3932 22.128C33.1052 22.528 32.7372 22.888 32.2892 23.208C31.8572 23.512 31.3692 23.76 30.8252 23.952C30.2972 24.144 29.7292 24.24 29.1212 24.24ZM29.9372 21.624C30.6252 21.624 31.2332 21.456 31.7612 21.12C32.2892 20.784 32.6972 20.32 32.9852 19.728C33.2892 19.12 33.4412 18.424 33.4412 17.64C33.4412 16.872 33.2892 16.192 32.9852 15.6C32.6972 15.008 32.2892 14.544 31.7612 14.208C31.2332 13.872 30.6252 13.704 29.9372 13.704C29.2492 13.704 28.6412 13.872 28.1132 14.208C27.6012 14.544 27.2012 15.008 26.9132 15.6C26.6252 16.192 26.4812 16.872 26.4812 17.64C26.4812 18.424 26.6252 19.12 26.9132 19.728C27.2012 20.32 27.6012 20.784 28.1132 21.12C28.6412 21.456 29.2492 21.624 29.9372 21.624ZM43.5184 24L38.1904 11.352H41.4064L45.0064 20.808L44.3824 20.976L48.1744 11.352H51.3184L45.7264 24H43.5184ZM59.0544 24.24C57.7264 24.24 56.5504 23.96 55.5264 23.4C54.5184 22.84 53.7264 22.08 53.1504 21.12C52.5904 20.144 52.3104 19.032 52.3104 17.784C52.3104 16.792 52.4704 15.888 52.7904 15.072C53.1104 14.256 53.5504 13.552 54.1104 12.96C54.6864 12.352 55.3664 11.888 56.1504 11.568C56.9504 11.232 57.8224 11.064 58.7664 11.064C59.5984 11.064 60.3744 11.224 61.0944 11.544C61.8144 11.864 62.4384 12.304 62.9664 12.864C63.4944 13.408 63.8944 14.064 64.1664 14.832C64.4544 15.584 64.5904 16.408 64.5744 17.304L64.5504 18.336H54.3024L53.7504 16.32H62.0784L61.6944 16.728V16.2C61.6464 15.704 61.4864 15.272 61.2144 14.904C60.9424 14.52 60.5904 14.224 60.1584 14.016C59.7424 13.792 59.2784 13.68 58.7664 13.68C57.9824 13.68 57.3184 13.832 56.7744 14.136C56.2464 14.44 55.8464 14.88 55.5744 15.456C55.3024 16.016 55.1664 16.72 55.1664 17.568C55.1664 18.384 55.3344 19.096 55.6704 19.704C56.0224 20.312 56.5104 20.784 57.1344 21.12C57.7744 21.44 58.5184 21.6 59.3664 21.6C59.9584 21.6 60.5024 21.504 60.9984 21.312C61.4944 21.12 62.0304 20.776 62.6064 20.28L64.0704 22.32C63.6384 22.72 63.1424 23.064 62.5824 23.352C62.0384 23.624 61.4624 23.84 60.8544 24C60.2464 24.16 59.6464 24.24 59.0544 24.24ZM67.2129 24V6.24H70.1889V24H67.2129ZM84.9364 24.24C83.8164 24.24 82.8084 24.056 81.9124 23.688C81.0324 23.304 80.3124 22.76 79.7524 22.056L81.6724 20.4C82.1524 20.944 82.6884 21.336 83.2804 21.576C83.8724 21.816 84.4964 21.936 85.1524 21.936C85.4244 21.936 85.6644 21.904 85.8724 21.84C86.0964 21.776 86.2884 21.68 86.4484 21.552C86.6084 21.424 86.7284 21.28 86.8084 21.12C86.9044 20.944 86.9524 20.752 86.9524 20.544C86.9524 20.16 86.8084 19.856 86.5204 19.632C86.3604 19.52 86.1044 19.4 85.7524 19.272C85.4164 19.144 84.9764 19.016 84.4324 18.888C83.5684 18.664 82.8484 18.408 82.2724 18.12C81.6964 17.816 81.2484 17.48 80.9284 17.112C80.6564 16.808 80.4484 16.464 80.3044 16.08C80.1764 15.696 80.1124 15.28 80.1124 14.832C80.1124 14.272 80.2324 13.768 80.4724 13.32C80.7284 12.856 81.0724 12.456 81.5044 12.12C81.9364 11.784 82.4404 11.528 83.0164 11.352C83.5924 11.176 84.1924 11.088 84.8164 11.088C85.4564 11.088 86.0724 11.168 86.6644 11.328C87.2724 11.488 87.8324 11.72 88.3444 12.024C88.8724 12.312 89.3204 12.664 89.6884 13.08L88.0564 14.88C87.7524 14.592 87.4164 14.336 87.0484 14.112C86.6964 13.888 86.3364 13.712 85.9684 13.584C85.6004 13.44 85.2564 13.368 84.9364 13.368C84.6324 13.368 84.3604 13.4 84.1204 13.464C83.8804 13.512 83.6804 13.592 83.5204 13.704C83.3604 13.816 83.2324 13.96 83.1364 14.136C83.0564 14.296 83.0164 14.488 83.0164 14.712C83.0324 14.904 83.0804 15.088 83.1604 15.264C83.2564 15.424 83.3844 15.56 83.5444 15.672C83.7204 15.784 83.9844 15.912 84.3364 16.056C84.6884 16.2 85.1444 16.336 85.7044 16.464C86.4884 16.672 87.1444 16.904 87.6724 17.16C88.2004 17.416 88.6164 17.712 88.9204 18.048C89.2244 18.336 89.4404 18.672 89.5684 19.056C89.6964 19.44 89.7604 19.864 89.7604 20.328C89.7604 21.08 89.5444 21.752 89.1124 22.344C88.6964 22.936 88.1204 23.4 87.3844 23.736C86.6644 24.072 85.8484 24.24 84.9364 24.24ZM92.3128 24V11.352H95.2168L95.2648 13.896L94.7848 14.088C94.9288 13.672 95.1448 13.288 95.4328 12.936C95.7208 12.568 96.0648 12.256 96.4648 12C96.8648 11.728 97.2888 11.52 97.7368 11.376C98.1848 11.216 98.6408 11.136 99.1048 11.136C99.7928 11.136 100.401 11.248 100.929 11.472C101.473 11.68 101.921 12.016 102.273 12.48C102.641 12.944 102.913 13.536 103.089 14.256L102.633 14.16L102.825 13.776C103.001 13.392 103.249 13.048 103.569 12.744C103.889 12.424 104.249 12.144 104.649 11.904C105.049 11.648 105.465 11.456 105.897 11.328C106.345 11.2 106.785 11.136 107.217 11.136C108.177 11.136 108.977 11.328 109.617 11.712C110.257 12.096 110.737 12.68 111.057 13.464C111.377 14.248 111.537 15.216 111.537 16.368V24H108.561V16.56C108.561 15.92 108.473 15.392 108.297 14.976C108.137 14.56 107.881 14.256 107.529 14.064C107.193 13.856 106.769 13.752 106.257 13.752C105.857 13.752 105.473 13.824 105.105 13.968C104.753 14.096 104.449 14.288 104.193 14.544C103.937 14.784 103.737 15.064 103.593 15.384C103.449 15.704 103.377 16.056 103.377 16.44V24H100.401V16.536C100.401 15.928 100.313 15.424 100.137 15.024C99.9608 14.608 99.7048 14.296 99.3688 14.088C99.0328 13.864 98.6248 13.752 98.1448 13.752C97.7448 13.752 97.3688 13.824 97.0168 13.968C96.6648 14.096 96.3608 14.28 96.1048 14.52C95.8488 14.76 95.6488 15.04 95.5048 15.36C95.3608 15.68 95.2888 16.032 95.2888 16.416V24H92.3128ZM119.59 24.24C118.55 24.24 117.606 23.952 116.758 23.376C115.91 22.8 115.23 22.016 114.718 21.024C114.206 20.032 113.95 18.904 113.95 17.64C113.95 16.376 114.206 15.248 114.718 14.256C115.23 13.264 115.926 12.488 116.806 11.928C117.686 11.368 118.678 11.088 119.782 11.088C120.422 11.088 121.006 11.184 121.534 11.376C122.062 11.552 122.526 11.808 122.926 12.144C123.326 12.48 123.654 12.864 123.91 13.296C124.182 13.728 124.366 14.192 124.462 14.688L123.814 14.52V11.352H126.79V24H123.79V20.976L124.486 20.856C124.374 21.288 124.166 21.712 123.862 22.128C123.574 22.528 123.206 22.888 122.758 23.208C122.326 23.512 121.838 23.76 121.294 23.952C120.766 24.144 120.198 24.24 119.59 24.24ZM120.406 21.624C121.094 21.624 121.702 21.456 122.23 21.12C122.758 20.784 123.166 20.32 123.454 19.728C123.758 19.12 123.91 18.424 123.91 17.64C123.91 16.872 123.758 16.192 123.454 15.6C123.166 15.008 122.758 14.544 122.23 14.208C121.702 13.872 121.094 13.704 120.406 13.704C119.718 13.704 119.11 13.872 118.582 14.208C118.07 14.544 117.67 15.008 117.382 15.6C117.094 16.192 116.95 16.872 116.95 17.64C116.95 18.424 117.094 19.12 117.382 19.728C117.67 20.32 118.07 20.784 118.582 21.12C119.11 21.456 119.718 21.624 120.406 21.624ZM130.212 24V11.352H133.116L133.164 15.384L132.756 14.472C132.932 13.832 133.236 13.256 133.668 12.744C134.1 12.232 134.596 11.832 135.156 11.544C135.732 11.24 136.332 11.088 136.956 11.088C137.228 11.088 137.484 11.112 137.724 11.16C137.98 11.208 138.188 11.264 138.348 11.328L137.556 14.568C137.38 14.472 137.164 14.392 136.908 14.328C136.652 14.264 136.396 14.232 136.14 14.232C135.74 14.232 135.356 14.312 134.988 14.472C134.636 14.616 134.324 14.824 134.052 15.096C133.78 15.368 133.564 15.688 133.404 16.056C133.26 16.408 133.188 16.808 133.188 17.256V24H130.212ZM142.151 24V8.136H145.103V24H142.151ZM139.655 14.088V11.352H147.863V14.088H139.655Z" fill="white"/>
<path d="M177.999 1.65851C178.546 1.65851 179.041 1.90802 179.399 2.31164C179.757 2.71526 179.978 3.27299 179.978 3.88943C179.978 4.50587 179.757 5.0636 179.399 5.46722C179.041 5.87084 178.546 6.12035 177.999 6.12035C177.452 6.12035 176.957 5.87084 176.599 5.46722C176.241 5.0636 176.02 4.50587 176.02 3.88943C176.02 3.27299 176.241 2.71526 176.599 2.31164C176.954 1.91169 177.452 1.65851 177.999 1.65851ZM186.674 22.0744C185.857 21.1864 185.072 20.3535 184.802 20.1773C184.164 19.7664 182.693 18.6326 182.045 18.6473C181.57 18.6619 181.124 18.9628 180.707 19.5793L178.526 23.2852L178.116 23.7622L177.706 23.2852L175.525 19.5793C175.109 18.9628 174.663 18.6583 174.187 18.6473C173.54 18.6326 172.068 19.7664 171.43 20.1773L169.914 21.1497L159.413 23.7402C158.736 24.3053 154.27 29.8055 155.103 30H173.654H173.667H177.573H195V25.4501L191.804 23.7512C190.775 23.2045 189.711 24.1108 189.151 24.4154V17.6529H194.427C194.954 17.5832 195.075 16.8603 194.834 16.5448L194.512 16.1228L191.585 12.248H193.535C193.997 12.149 194.203 11.4298 193.799 10.9821L190.443 6.54966H191.328C191.947 6.54966 192.25 5.9479 191.895 5.37182L188.62 1.06409C188.431 0.818249 188.243 0.484344 187.927 0.473337C187.562 0.462329 187.334 0.876957 187.126 1.15949L184.044 5.28376C183.646 5.88552 183.799 6.53131 184.418 6.5093H185.404L182.025 10.9858C181.654 11.5068 181.882 12.248 182.491 12.149H184.171L184.262 12.2517L181.124 16.4017C180.772 17.0108 180.938 17.7409 181.762 17.6566H186.674V22.0744ZM165.959 1.74291C166.483 1.5411 167.033 1.5998 167.495 1.85298C167.957 2.10616 168.335 2.56482 168.514 3.15558C168.693 3.74633 168.644 4.36644 168.416 4.88748C168.192 5.40851 167.785 5.83415 167.261 6.03596C166.737 6.23777 166.187 6.18273 165.724 5.92588C165.262 5.6727 164.885 5.21404 164.706 4.62329C164.526 4.03253 164.575 3.41243 164.803 2.89139C165.031 2.37035 165.431 1.94839 165.959 1.74291ZM171.157 8.08708C171.079 7.76419 171.251 7.43028 171.538 7.34589C171.824 7.25783 172.12 7.4523 172.195 7.7752L172.368 8.49437L172.391 8.48337L172.397 8.4797C172.602 8.40264 172.84 8.45034 173.048 8.58977C173.198 8.68885 173.331 8.83195 173.426 9.01174C173.523 9.19154 173.582 9.40435 173.582 9.63919C173.579 9.97676 173.449 10.351 173.116 10.7253C173.103 10.74 173.087 10.7546 173.068 10.7583L172.921 10.8244L174.458 17.2823C174.36 17.2676 174.259 17.2529 174.161 17.2529C173.924 17.2456 173.657 17.3153 173.38 17.4254L171.915 11.272L171.538 11.4408L171.398 11.4995C170.581 11.8261 169.985 12.0646 168.947 11.7747C168.94 11.771 168.934 11.771 168.924 11.7674C168.198 11.4518 167.821 11.0078 167.456 10.5749L167.404 10.5125L166.938 13.8442C167.355 14.1377 167.768 14.3579 168.159 14.5634C169.347 15.1871 170.324 15.7045 170.535 17.807C170.574 18.1849 170.555 18.5409 170.539 18.9261V18.9335C170.535 18.9885 170.532 19.0472 170.529 19.1866L170.076 19.4765C169.562 19.5132 168.983 19.638 168.371 19.8214C168.38 19.5426 168.393 19.2674 168.406 18.9922L168.416 18.8014C168.426 18.5812 168.436 18.3794 168.426 18.1886C168.416 18.0088 168.387 17.84 168.319 17.6749L168.299 17.6309C168.224 17.4511 168.156 17.2786 168.055 17.2273C167.85 17.1208 167.531 16.9887 167.163 16.853C166.743 16.6952 166.274 16.5374 165.861 16.409C165.558 17.5428 165.145 18.2913 164.706 19.5939C164.553 20.0416 164.4 20.4819 164.24 20.9039C164.09 20.9773 163.95 21.047 163.814 21.1167C163.137 21.4579 162.668 21.7221 161.949 21.5497C161.874 21.5313 161.796 21.5166 161.717 21.4983C162.007 20.6507 162.313 19.693 162.613 18.728C163.062 17.2823 163.491 16.4237 163.807 15.2422C163.618 14.9817 163.439 14.6918 163.316 14.3689C163.179 14.0166 163.114 13.6314 163.182 13.2204L163.843 9.18787L163.807 9.1842C163.576 9.17319 163.387 9.16218 163.169 9.27226C162.866 9.4227 162.632 9.72358 162.365 10.0612C162.258 10.1969 162.147 10.34 162.02 10.4831L162.01 10.4905C161.916 10.6005 161.818 10.7143 161.724 10.8207L160.555 12.1526C160.503 12.2113 160.425 12.2113 160.373 12.1526L159.1 10.6446C159.052 10.5859 159.052 10.4941 159.104 10.4391L160.269 9.11081C160.37 8.99706 160.458 8.89432 160.539 8.79892L160.552 8.78425C161.076 8.13845 161.506 7.61742 162.053 7.26884C162.609 6.91658 163.273 6.73679 164.269 6.78816H164.273C164.627 6.79183 165.047 6.83586 165.392 6.87255C165.552 6.88723 165.698 6.90558 165.819 6.91292C167.495 7.03767 168.283 8.03205 168.891 8.80626C169.162 9.1475 169.393 9.44472 169.647 9.58048C169.764 9.64286 169.953 9.55479 170.164 9.45572C170.291 9.39335 170.428 9.33097 170.571 9.28694C170.665 9.24658 170.714 9.22456 170.753 9.20988C170.805 9.18787 170.838 9.17319 170.861 9.16218L171.359 8.93836L171.157 8.08708ZM176.228 0.836595C176.166 0.719178 176.202 0.565069 176.31 0.495352C176.414 0.425636 176.551 0.465998 176.612 0.587084L176.896 1.14114C176.957 1.25856 176.922 1.41267 176.814 1.48239C176.707 1.5521 176.573 1.51174 176.511 1.39066L176.228 0.836595ZM177.82 0.249511C177.82 0.110078 177.918 0 178.041 0C178.165 0 178.263 0.113748 178.263 0.249511V0.891634C178.263 1.03107 178.165 1.14114 178.041 1.14114C177.918 1.14114 177.82 1.0274 177.82 0.891634V0.249511ZM179.461 0.638454C179.522 0.521037 179.656 0.477006 179.763 0.546722C179.867 0.616438 179.906 0.766879 179.845 0.887965L179.561 1.44203C179.5 1.56311 179.366 1.60347 179.259 1.53376C179.151 1.46404 179.115 1.3136 179.177 1.19251L179.461 0.638454ZM180.707 1.90068C180.815 1.83097 180.948 1.87133 181.01 1.99242C181.072 2.10983 181.036 2.26394 180.929 2.33366L180.437 2.65289C180.333 2.7226 180.196 2.68224 180.134 2.56115C180.072 2.44374 180.108 2.28963 180.216 2.21991L180.707 1.90068ZM181.228 3.69496C181.352 3.69496 181.449 3.80504 181.449 3.94447C181.449 4.0839 181.348 4.19398 181.228 4.19398H180.658C180.535 4.19398 180.437 4.0839 180.437 3.94447C180.437 3.80504 180.535 3.69496 180.658 3.69496H181.228ZM180.883 5.54428C180.987 5.61399 181.026 5.76443 180.964 5.88552C180.903 6.00294 180.769 6.04697 180.662 5.97725L180.17 5.65802C180.066 5.58831 180.027 5.43787 180.089 5.31678C180.151 5.19569 180.284 5.15533 180.391 5.22505L180.883 5.54428ZM179.767 6.94961C179.828 7.06703 179.793 7.22114 179.685 7.29085C179.581 7.36057 179.444 7.32021 179.382 7.19912L179.099 6.64506C179.037 6.52764 179.073 6.37353 179.181 6.30382C179.285 6.2341 179.421 6.27446 179.483 6.39555L179.767 6.94961ZM178.175 7.53669C178.175 7.67613 178.074 7.7862 177.953 7.7862C177.83 7.7862 177.732 7.67246 177.732 7.53669V6.89457C177.732 6.75514 177.83 6.64506 177.953 6.64506C178.077 6.64506 178.175 6.75514 178.175 6.89457V7.53669ZM176.534 7.14775C176.472 7.26517 176.339 7.3092 176.232 7.23948C176.127 7.16977 176.088 7.01932 176.15 6.89824L176.433 6.34418C176.495 6.22676 176.629 6.18273 176.736 6.25245C176.843 6.32216 176.879 6.4726 176.817 6.59369L176.534 7.14775ZM175.288 5.88552C175.183 5.95524 175.047 5.91487 174.985 5.79379C174.923 5.67637 174.959 5.52226 175.066 5.45254L175.558 5.13332C175.662 5.0636 175.799 5.10396 175.86 5.22505C175.922 5.34247 175.887 5.49658 175.779 5.56629L175.288 5.88552ZM174.767 4.09124C174.643 4.09124 174.545 3.9775 174.545 3.84173C174.545 3.7023 174.646 3.59222 174.767 3.59222H175.336C175.46 3.59222 175.558 3.7023 175.558 3.84173C175.558 3.98116 175.46 4.09124 175.336 4.09124H174.767ZM175.112 2.24193C175.008 2.17221 174.969 2.02177 175.03 1.90068C175.092 1.78327 175.226 1.73924 175.333 1.80895L175.825 2.12818C175.932 2.1979 175.968 2.34834 175.906 2.46942C175.844 2.58684 175.711 2.63087 175.603 2.56115L175.112 2.24193Z" fill="#1A6013"/>
</svg>
